<svg width="587" height="408" viewBox="0 0 587 408" fill="none" xmlns="http://www.w3.org/2000/svg">
<g clip-path="url(#clip0_9765_118430)">
<path d="M590.001 356.512H-11V356.812H590.001V356.512Z" fill="#EBEBEB"/>
<path d="M529.779 375.854H489.969V376.154H529.779V375.854Z" fill="#EBEBEB"/>
<path d="M387.129 379.121H376.684V379.422H387.129V379.121Z" fill="#EBEBEB"/>
<path d="M488.77 364.697H465.703V364.998H488.77V364.697Z" fill="#EBEBEB"/>
<path d="M103.969 366.717H52.0547V367.017H103.969V366.717Z" fill="#EBEBEB"/>
<path d="M122.292 366.717H114.684V367.017H122.292V366.717Z" fill="#EBEBEB"/>
<path d="M259.631 371.789H147.027V372.09H259.631V371.789Z" fill="#EBEBEB"/>
<path d="M273.888 302.902H41.7931C38.0068 302.902 34.9297 299.825 34.9297 296.039V-30.2206C34.9297 -34.0069 38.0068 -37.084 41.7931 -37.084H273.9C277.686 -37.084 280.763 -34.0069 280.763 -30.2206V296.039C280.751 299.825 277.674 302.902 273.888 302.902ZM41.7931 -36.7835C38.1751 -36.7835 35.2302 -33.8386 35.2302 -30.2206V296.039C35.2302 299.657 38.1751 302.602 41.7931 302.602H273.9C277.518 302.602 280.463 299.657 280.463 296.039V-30.2206C280.463 -33.8386 277.518 -36.7835 273.9 -36.7835H41.7931Z" fill="#EBEBEB"/>
<path d="M533.88 302.902H301.774C297.987 302.902 294.91 299.825 294.91 296.039V-30.2206C294.91 -34.0069 297.987 -37.084 301.774 -37.084H533.88C537.667 -37.084 540.744 -34.0069 540.744 -30.2206V296.039C540.744 299.825 537.667 302.902 533.88 302.902ZM301.774 -36.7835C298.156 -36.7835 295.211 -33.8386 295.211 -30.2206V296.039C295.211 299.657 298.156 302.602 301.774 302.602H533.88C537.498 302.602 540.443 299.657 540.443 296.039V-30.2206C540.443 -33.8386 537.498 -36.7835 533.88 -36.7835H301.774Z" fill="#EBEBEB"/>
<path d="M527.697 357.502V238.485H496.598V183.685H492.226V215.099H480.256V206.413H458.722V176.341H454.746V139.584H451.549V175.67H443.979V229.128H429.618V175.67H403.712V220.874H376.507V166.086H372.121V197.487H360.151V188.801H338.617V158.741H334.641V121.984H331.444V158.07H323.874V211.529H309.513V158.07H283.607V209.779H266.13V179.708H262.141V142.951H258.943V179.037H251.374V232.495H237.026V179.037H211.106V232.495H198.344V238.485H175.99V183.685H171.604V215.099H159.648V206.413H138.114V176.341H134.138V139.584H130.94V175.67H123.986V172.663H98.079V175.67H83.7183V172.663H76.1485V136.577H72.9512V173.334H68.975V203.406H47.4408V212.092H35.4713V180.678H31.0852V235.478H0V357.502H527.697Z" fill="#F5F5F5"/>
<path d="M445.447 78.5533C464.822 71.5162 474.023 52.0394 465.997 35.0506C457.971 18.0619 435.758 9.99449 416.383 17.0316C397.008 24.0687 387.807 43.5455 395.833 60.5343C403.858 77.523 426.071 85.5904 445.447 78.5533Z" fill="#FAFAFA"/>
<path d="M411.2 47.4267C411.2 44.2278 408.248 41.64 404.6 41.64C403.944 41.64 403.302 41.7239 402.701 41.8796C402.796 41.3045 402.851 40.7055 402.851 40.1065C402.851 33.3373 396.593 27.8501 388.873 27.8501C387.998 27.8501 387.138 27.922 386.304 28.0658C384.159 24.9867 380.292 22.9141 375.879 22.9141C369.183 22.9141 363.759 27.6345 363.663 33.4811C363.595 33.4811 363.527 33.4691 363.458 33.4691C357.241 33.4691 352.199 37.89 352.199 43.3413C352.199 48.7925 357.241 53.2134 363.458 53.2134H404.805L404.791 53.2014C408.344 53.1176 411.2 50.5657 411.2 47.4267Z" fill="#F0F0F0"/>
<path d="M6.06641 109.02C6.06641 105.822 9.01779 103.234 12.666 103.234C13.3219 103.234 13.9641 103.318 14.5653 103.473C14.4697 102.898 14.415 102.299 14.415 101.7C14.415 94.9311 20.673 89.4439 28.3931 89.4439C29.2676 89.4439 30.1284 89.5158 30.9619 89.6595C33.1071 86.5805 36.974 84.5078 41.3874 84.5078C48.0827 84.5078 53.5072 89.2282 53.6029 95.0748C53.6712 95.0748 53.7395 95.0629 53.8078 95.0629C60.0249 95.0629 65.0668 99.4838 65.0668 104.935C65.0668 110.386 60.0249 114.807 53.8078 114.807H12.4747L12.4884 114.795C8.92215 114.711 6.06641 112.159 6.06641 109.02Z" fill="#F0F0F0"/>
<path d="M165.318 42.3833C165.318 37.3274 160.645 33.23 154.879 33.23C153.84 33.23 152.829 33.3738 151.887 33.6134C152.037 32.6909 152.119 31.7564 152.119 30.7979C152.119 20.0871 142.213 11.413 130.011 11.413C128.617 11.413 127.264 11.5328 125.939 11.7485C122.537 6.87231 116.429 3.60156 109.433 3.60156C98.8436 3.60156 90.249 11.0656 90.0987 20.3147C89.9894 20.3147 89.8801 20.3028 89.7708 20.3028C79.9328 20.3028 71.9531 27.2995 71.9531 35.9257C71.9531 44.5518 79.9328 51.5486 89.7708 51.5486H155.193L155.18 51.5366C160.809 51.3809 165.318 47.3433 165.318 42.3833Z" fill="#F0F0F0"/>
<path d="M316.614 90.2217C316.614 84.1355 310.984 79.1994 304.043 79.1994C302.786 79.1994 301.583 79.3671 300.436 79.6667C300.613 78.5644 300.722 77.4382 300.722 76.2881C300.722 63.3968 288.808 52.9496 274.105 52.9496C272.425 52.9496 270.799 53.0933 269.2 53.3569C265.115 47.4863 257.75 43.5566 249.333 43.5566C236.584 43.5566 226.255 52.5302 226.063 63.6723C225.927 63.6723 225.804 63.6604 225.681 63.6604C213.848 63.6604 204.242 72.0709 204.242 82.4582C204.242 92.8455 213.834 101.256 225.681 101.256H304.412L304.398 101.244C311.175 101.052 316.614 96.2001 316.614 90.2217Z" fill="#F0F0F0"/>
<path d="M494.014 64.7647C494.014 62.7759 492.183 61.1704 489.914 61.1704C489.505 61.1704 489.108 61.2303 488.739 61.3262C488.794 60.9668 488.835 60.5954 488.835 60.224C488.835 56.0187 484.941 52.6042 480.145 52.6042C479.598 52.6042 479.065 52.6521 478.546 52.736C477.207 50.819 474.816 49.5371 472.056 49.5371C467.902 49.5371 464.513 52.4724 464.459 56.1026C464.418 56.1026 464.377 56.1026 464.336 56.1026C460.469 56.1026 457.34 58.8462 457.34 62.2367C457.34 65.6273 460.469 68.3709 464.336 68.3709H490.037C492.237 68.311 494.014 66.7175 494.014 64.7647Z" fill="#F0F0F0"/>
<path d="M505.221 168.099C505.221 166.11 503.39 164.504 501.121 164.504C500.712 164.504 500.315 164.564 499.946 164.66C500.001 164.301 500.042 163.929 500.042 163.558C500.042 159.353 496.148 155.938 491.352 155.938C490.805 155.938 490.272 155.986 489.753 156.07C488.414 154.153 486.023 152.871 483.263 152.871C479.109 152.871 475.72 155.806 475.666 159.437C475.625 159.437 475.584 159.437 475.543 159.437C471.676 159.437 468.547 162.18 468.547 165.571C468.547 168.961 471.676 171.705 475.543 171.705H501.244C503.444 171.633 505.221 170.052 505.221 168.099Z" fill="#F0F0F0"/>
<path d="M117.014 189.796C117.014 187.807 115.183 186.202 112.914 186.202C112.504 186.202 112.108 186.262 111.739 186.357C111.794 185.998 111.835 185.627 111.835 185.255C111.835 181.05 107.941 177.635 103.145 177.635C102.598 177.635 102.065 177.683 101.546 177.767C100.207 175.85 97.8159 174.568 95.0558 174.568C90.902 174.568 87.5134 177.504 87.4587 181.134C87.4177 181.134 87.3767 181.134 87.3357 181.134C83.4689 181.134 80.3398 183.877 80.3398 187.268C80.3398 190.659 83.4689 193.402 87.3357 193.402H113.037C115.237 193.342 117.014 191.749 117.014 189.796Z" fill="#F0F0F0"/>
<path d="M316.255 407.999C433.508 407.999 528.56 402.45 528.56 395.604C528.56 388.758 433.508 383.209 316.255 383.209C199.002 383.209 103.949 388.758 103.949 395.604C103.949 402.45 199.002 407.999 316.255 407.999Z" fill="#F5F5F5"/>
<path d="M537.144 366.992C536.963 365.496 537.039 363.336 538.897 362.716C541.782 361.764 543.505 359.529 543.399 356.991C543.308 354.468 546.345 352.005 548.626 354.377C550.907 356.749 550.605 352.549 553.642 351.537C556.678 350.525 559.262 352.987 558.431 355.253C557.6 357.519 560.591 358.924 564.187 357.006C567.782 355.087 571.725 358.577 570.97 361.311C570.214 364.046 570.834 364.348 573.1 363.441C575.034 362.671 578.221 364.408 578.297 366.992H537.144Z" fill="#407BFF"/>
<path d="M579.742 275.546C579.848 275.183 579.909 274.76 579.924 274.307C580.075 271.739 582.522 272.147 584.607 271.799C586.239 271.527 581.933 267.418 585.211 266.089C585.816 265.847 586.48 265.56 586.798 264.986C587.206 264.215 586.798 263.218 586.088 262.72C585.378 262.221 584.471 262.115 583.595 262.1C583.066 261.451 583.489 260.469 584.018 259.804C584.532 259.139 585.166 258.384 584.97 257.568C584.667 256.329 582.945 256.284 581.691 256.526C581.223 255.785 581.238 254.849 581.012 254.003C580.785 253.157 580.105 252.265 579.244 252.371C578.428 252.477 577.914 253.398 577.114 253.595C576.177 253.821 575.376 252.99 574.636 252.371C573.896 251.752 572.627 251.359 572.113 252.175C571.811 252.658 571.992 253.353 571.675 253.821C571.131 254.652 569.832 254.139 569.031 253.549C568.231 252.96 566.947 252.416 566.388 253.247C566.221 253.504 566.176 253.821 566.07 254.108C565.693 255.196 564.514 255.755 563.593 256.45C562.671 257.145 561.946 258.55 562.716 259.411C563.094 259.834 563.774 260 563.97 260.544C564.212 261.224 563.517 261.813 562.973 262.281C562.067 263.052 561.901 265.363 563.094 265.983C563.593 266.255 564.333 266.33 564.454 266.889C564.559 267.388 564.061 267.765 563.729 268.158C562.807 269.216 563.2 271.104 564.454 271.709C564.741 271.845 565.088 271.965 565.194 272.268C565.27 272.479 565.194 272.721 565.118 272.932C564.998 273.355 564.967 273.793 564.998 274.216C565.013 274.367 565.043 274.519 565.149 274.624C565.254 274.715 565.39 274.73 565.526 274.73C567.264 274.806 568.095 274.201 569.152 275.697C569.258 275.848 569.364 275.984 569.515 276.075C569.651 276.165 569.832 276.18 569.998 276.195C571.192 276.286 571.962 275.546 573.05 275.41C574.561 275.213 574.878 275.999 576.207 276.618C578.338 277.585 579.35 276.966 579.742 275.546Z" fill="#407BFF"/>
<path d="M559.832 273.401C559.938 273.039 559.999 272.616 560.014 272.162C560.165 269.594 562.612 270.002 564.697 269.655C566.328 269.383 562.023 265.273 565.301 263.944C565.906 263.702 566.57 263.415 566.887 262.841C567.295 262.071 566.887 261.074 566.177 260.575C565.467 260.076 564.561 259.971 563.685 259.956C563.156 259.306 563.579 258.324 564.108 257.659C564.621 256.995 565.256 256.239 565.059 255.423C564.757 254.185 563.035 254.139 561.781 254.381C561.313 253.641 561.328 252.704 561.101 251.858C560.875 251.012 560.195 250.121 559.334 250.226C558.518 250.332 558.004 251.254 557.204 251.45C556.267 251.677 555.466 250.846 554.726 250.226C553.986 249.607 552.717 249.214 552.203 250.03C551.901 250.514 552.082 251.208 551.765 251.677C551.221 252.508 549.922 251.994 549.121 251.405C548.32 250.816 547.036 250.272 546.477 251.103C546.311 251.36 546.266 251.677 546.16 251.964C545.782 253.052 544.604 253.611 543.682 254.305C542.761 255 542.036 256.405 542.806 257.266C543.184 257.69 543.864 257.856 544.06 258.4C544.302 259.079 543.607 259.684 543.063 260.137C542.157 260.907 541.99 263.219 543.184 263.838C543.682 264.11 544.423 264.186 544.544 264.745C544.649 265.243 544.151 265.621 543.818 266.014C542.897 267.071 543.29 268.96 544.544 269.564C544.831 269.7 545.178 269.821 545.284 270.108C545.359 270.319 545.284 270.561 545.208 270.773C545.087 271.196 545.057 271.634 545.087 272.057C545.103 272.208 545.133 272.359 545.239 272.465C545.344 272.555 545.48 272.57 545.616 272.57C547.354 272.646 548.184 272.042 549.242 273.537C549.348 273.688 549.454 273.824 549.605 273.915C549.741 274.006 549.922 274.021 550.088 274.036C551.282 274.126 552.052 273.386 553.14 273.25C554.65 273.054 554.968 273.839 556.297 274.459C558.427 275.426 559.439 274.821 559.832 273.401Z" fill="#407BFF"/>
<path d="M557.899 260.708C558.004 260.345 558.065 259.937 558.08 259.469C558.231 256.901 560.678 257.309 562.763 256.961C564.395 256.689 560.089 252.58 563.368 251.251C563.972 251.009 564.637 250.722 564.954 250.148C565.362 249.377 564.954 248.38 564.244 247.882C563.534 247.383 562.627 247.277 561.751 247.262C561.222 246.613 561.645 245.631 562.174 244.966C562.703 244.301 563.322 243.546 563.126 242.73C562.824 241.491 561.101 241.446 559.848 241.688C559.379 240.947 559.394 240.011 559.168 239.165C558.941 238.319 558.261 237.427 557.4 237.533C556.584 237.639 556.071 238.56 555.27 238.757C554.333 238.983 553.533 238.152 552.792 237.533C552.052 236.914 550.783 236.521 550.269 237.337C549.967 237.82 550.149 238.5 549.831 238.983C549.287 239.814 547.988 239.301 547.188 238.711C546.387 238.122 545.103 237.578 544.544 238.409C544.378 238.666 544.332 238.983 544.226 239.27C543.849 240.358 542.67 240.917 541.749 241.612C540.827 242.307 540.102 243.712 540.873 244.573C541.25 244.996 541.93 245.162 542.127 245.706C542.368 246.386 541.673 246.975 541.129 247.444C540.223 248.214 540.057 250.525 541.25 251.145C541.749 251.417 542.489 251.492 542.61 252.051C542.716 252.55 542.217 252.928 541.885 253.32C540.963 254.378 541.356 256.266 542.61 256.871C542.897 257.007 543.245 257.127 543.35 257.414C543.426 257.626 543.35 257.868 543.275 258.079C543.154 258.502 543.124 258.94 543.154 259.363C543.169 259.514 543.199 259.665 543.305 259.771C543.411 259.862 543.547 259.877 543.683 259.877C545.42 259.953 546.251 259.348 547.308 260.844C547.414 260.995 547.52 261.131 547.671 261.222C547.807 261.312 547.988 261.327 548.154 261.342C549.348 261.433 550.118 260.693 551.206 260.557C552.717 260.36 553.034 261.146 554.364 261.765C556.494 262.732 557.506 262.128 557.899 260.708Z" fill="#407BFF"/>
<path d="M544.789 267.026C544.895 266.664 544.956 266.241 544.971 265.787C545.122 263.219 547.569 263.627 549.654 263.28C551.286 263.008 546.98 258.898 550.258 257.569C550.863 257.327 551.527 257.04 551.845 256.466C552.252 255.696 551.845 254.699 551.134 254.2C550.424 253.701 549.518 253.596 548.642 253.581C548.113 252.931 548.536 251.949 549.065 251.284C549.578 250.62 550.213 249.864 550.016 249.048C549.714 247.81 547.992 247.764 546.738 248.006C546.27 247.266 546.285 246.329 546.058 245.483C545.832 244.637 545.152 243.746 544.291 243.851C543.475 243.957 542.961 244.879 542.161 245.075C541.224 245.302 540.423 244.471 539.683 243.851C538.943 243.232 537.674 242.839 537.16 243.655C536.858 244.139 537.039 244.833 536.722 245.302C536.178 246.133 534.879 245.619 534.078 245.03C533.277 244.441 531.993 243.897 531.434 244.728C531.268 244.985 531.223 245.302 531.117 245.589C530.739 246.677 529.561 247.236 528.64 247.93C527.718 248.625 526.993 250.03 527.763 250.892C528.141 251.315 528.821 251.481 529.017 252.025C529.259 252.704 528.564 253.309 528.02 253.762C527.114 254.532 526.947 256.844 528.141 257.463C528.64 257.735 529.38 257.811 529.501 258.37C529.606 258.868 529.108 259.246 528.775 259.639C527.854 260.696 528.247 262.585 529.501 263.189C529.788 263.325 530.135 263.446 530.241 263.733C530.316 263.944 530.241 264.186 530.165 264.398C530.045 264.821 530.014 265.259 530.044 265.682C530.06 265.833 530.09 265.984 530.196 266.09C530.301 266.18 530.437 266.195 530.573 266.195C532.311 266.271 533.142 265.667 534.199 267.162C534.305 267.313 534.411 267.449 534.562 267.54C534.698 267.631 534.879 267.646 535.045 267.661C536.239 267.751 537.009 267.011 538.097 266.875C539.608 266.679 539.925 267.464 541.254 268.084C543.384 269.051 544.397 268.446 544.789 267.026Z" fill="#407BFF"/>
<path d="M531.524 264.108C531.629 263.746 531.69 263.323 531.705 262.869C531.856 260.301 534.303 260.709 536.388 260.362C538.02 260.09 533.714 255.98 536.993 254.651C537.597 254.409 538.262 254.122 538.579 253.548C538.987 252.778 538.579 251.781 537.869 251.282C537.159 250.784 536.252 250.678 535.376 250.663C534.847 250.013 535.27 249.031 535.799 248.366C536.313 247.702 536.947 246.946 536.751 246.13C536.449 244.892 534.727 244.846 533.473 245.088C533.004 244.348 533.019 243.411 532.793 242.565C532.566 241.719 531.886 240.828 531.025 240.933C530.209 241.039 529.696 241.961 528.895 242.157C527.958 242.384 527.158 241.553 526.417 240.933C525.677 240.314 524.408 239.921 523.894 240.737C523.592 241.221 523.774 241.915 523.456 242.384C522.912 243.215 521.613 242.701 520.813 242.112C520.012 241.523 518.728 240.979 518.169 241.81C518.003 242.067 517.957 242.384 517.852 242.671C517.474 243.759 516.295 244.318 515.374 245.013C514.452 245.707 513.727 247.112 514.498 247.974C514.875 248.397 515.555 248.563 515.752 249.107C515.993 249.786 515.298 250.391 514.754 250.844C513.848 251.614 513.682 253.926 514.875 254.545C515.374 254.817 516.114 254.893 516.235 255.452C516.341 255.95 515.842 256.328 515.51 256.721C514.588 257.778 514.981 259.667 516.235 260.271C516.522 260.407 516.87 260.528 516.975 260.815C517.051 261.026 516.975 261.268 516.9 261.48C516.779 261.903 516.749 262.341 516.779 262.764C516.794 262.915 516.824 263.066 516.93 263.172C517.036 263.262 517.172 263.277 517.308 263.277C519.045 263.353 519.876 262.749 520.933 264.244C521.039 264.395 521.145 264.531 521.296 264.622C521.432 264.713 521.613 264.728 521.779 264.743C522.973 264.833 523.743 264.093 524.831 263.957C526.342 263.761 526.659 264.546 527.989 265.166C530.119 266.133 531.131 265.528 531.524 264.108Z" fill="#407BFF"/>
<path d="M531.341 278.294C531.416 278.007 531.462 277.674 531.492 277.327C531.613 275.302 533.531 275.635 535.178 275.348C536.462 275.136 533.063 271.903 535.646 270.861C536.13 270.664 536.643 270.453 536.885 270C537.202 269.395 536.885 268.61 536.326 268.217C535.767 267.824 535.057 267.734 534.362 267.719C533.939 267.205 534.287 266.434 534.695 265.906C535.102 265.377 535.601 264.788 535.45 264.138C535.223 263.171 533.864 263.126 532.867 263.322C532.504 262.733 532.504 261.993 532.338 261.328C532.156 260.663 531.628 259.953 530.948 260.044C530.298 260.12 529.905 260.86 529.271 260.996C528.531 261.162 527.896 260.512 527.322 260.029C526.748 259.545 525.736 259.243 525.343 259.878C525.101 260.271 525.252 260.799 524.996 261.177C524.573 261.842 523.545 261.419 522.911 260.966C522.276 260.497 521.279 260.074 520.826 260.724C520.69 260.92 520.66 261.177 520.584 261.404C520.282 262.265 519.36 262.703 518.62 263.247C517.895 263.806 517.321 264.893 517.94 265.573C518.243 265.906 518.771 266.042 518.922 266.465C519.104 266.993 518.575 267.477 518.137 267.839C517.427 268.444 517.291 270.257 518.242 270.755C518.635 270.967 519.225 271.027 519.315 271.465C519.406 271.858 519.013 272.16 518.741 272.462C518.016 273.293 518.318 274.774 519.315 275.257C519.542 275.363 519.814 275.454 519.904 275.695C519.965 275.861 519.904 276.043 519.844 276.224C519.753 276.556 519.723 276.889 519.753 277.236C519.768 277.357 519.783 277.478 519.874 277.553C519.95 277.629 520.07 277.629 520.176 277.644C521.536 277.705 522.201 277.221 523.032 278.415C523.107 278.535 523.198 278.641 523.319 278.717C523.424 278.777 523.56 278.792 523.696 278.807C524.633 278.883 525.237 278.294 526.098 278.188C527.292 278.037 527.534 278.656 528.576 279.14C530.238 279.895 531.039 279.412 531.341 278.294Z" fill="#407BFF"/>
<path d="M523.907 273.401C524.012 273.039 524.073 272.616 524.088 272.162C524.239 269.594 526.686 270.002 528.771 269.655C530.403 269.383 526.097 265.273 529.375 263.944C529.98 263.702 530.644 263.415 530.962 262.841C531.37 262.071 530.962 261.074 530.252 260.575C529.542 260.076 528.635 259.971 527.759 259.956C527.23 259.306 527.653 258.324 528.182 257.659C528.696 256.995 529.33 256.239 529.134 255.423C528.832 254.185 527.109 254.139 525.855 254.381C525.387 253.641 525.402 252.704 525.176 251.858C524.949 251.012 524.269 250.121 523.408 250.226C522.592 250.332 522.079 251.254 521.278 251.45C520.341 251.677 519.54 250.846 518.8 250.226C518.06 249.607 516.791 249.214 516.277 250.03C515.975 250.514 516.156 251.208 515.839 251.677C515.295 252.508 513.996 251.994 513.195 251.405C512.395 250.816 511.111 250.272 510.552 251.103C510.385 251.36 510.34 251.677 510.234 251.964C509.857 253.052 508.678 253.611 507.757 254.305C506.835 255 506.11 256.405 506.88 257.266C507.258 257.69 507.938 257.856 508.134 258.4C508.376 259.079 507.681 259.684 507.137 260.137C506.231 260.907 506.065 263.219 507.258 263.838C507.757 264.11 508.497 264.186 508.618 264.745C508.724 265.243 508.225 265.621 507.893 266.014C506.971 267.071 507.364 268.96 508.618 269.564C508.905 269.7 509.252 269.821 509.358 270.108C509.434 270.319 509.358 270.561 509.283 270.773C509.162 271.196 509.131 271.634 509.162 272.057C509.177 272.208 509.207 272.359 509.313 272.465C509.418 272.555 509.554 272.57 509.69 272.57C511.428 272.646 512.259 272.042 513.316 273.537C513.422 273.688 513.528 273.824 513.679 273.915C513.815 274.006 513.996 274.021 514.162 274.036C515.356 274.126 516.126 273.386 517.214 273.25C518.725 273.054 519.042 273.839 520.371 274.459C522.502 275.426 523.514 274.821 523.907 273.401Z" fill="#407BFF"/>
<path d="M544.789 251.418C544.895 251.056 544.956 250.633 544.971 250.18C545.122 247.611 547.569 248.019 549.654 247.672C551.286 247.4 546.98 243.291 550.258 241.961C550.863 241.719 551.527 241.432 551.845 240.858C552.252 240.088 551.845 239.091 551.134 238.577C550.424 238.078 549.518 237.973 548.642 237.958C548.113 237.308 548.536 236.326 549.065 235.661C549.578 234.997 550.213 234.241 550.016 233.425C549.714 232.187 547.992 232.141 546.738 232.383C546.27 231.643 546.285 230.706 546.058 229.86C545.832 229.014 545.152 228.123 544.291 228.228C543.475 228.334 542.961 229.256 542.161 229.452C541.224 229.679 540.423 228.848 539.683 228.228C538.943 227.609 537.674 227.216 537.16 228.032C536.858 228.515 537.039 229.21 536.722 229.679C536.178 230.51 534.879 229.996 534.078 229.407C533.277 228.818 531.993 228.274 531.434 229.105C531.268 229.361 531.223 229.679 531.117 229.966C530.739 231.054 529.561 231.612 528.64 232.307C527.718 233.002 526.993 234.407 527.763 235.268C528.141 235.691 528.821 235.858 529.017 236.402C529.259 237.081 528.564 237.686 528.02 238.139C527.114 238.909 526.947 241.221 528.141 241.84C528.64 242.112 529.38 242.188 529.501 242.747C529.606 243.245 529.108 243.623 528.775 244.016C527.854 245.073 528.247 246.962 529.501 247.566C529.788 247.702 530.135 247.823 530.241 248.11C530.316 248.321 530.241 248.563 530.165 248.775C530.045 249.198 530.014 249.621 530.044 250.059C530.06 250.21 530.09 250.361 530.196 250.467C530.301 250.557 530.437 250.572 530.573 250.572C532.311 250.648 533.142 250.044 534.199 251.539C534.305 251.69 534.411 251.826 534.562 251.917C534.698 252.008 534.879 252.023 535.045 252.038C536.239 252.128 537.009 251.388 538.097 251.252C539.608 251.056 539.925 251.841 541.254 252.461C543.384 253.443 544.397 252.838 544.789 251.418Z" fill="#407BFF"/>
<path d="M561.824 252.293C561.93 251.931 561.991 251.508 562.006 251.055C562.157 248.486 564.604 248.894 566.689 248.547C568.321 248.275 564.015 244.166 567.293 242.836C567.898 242.594 568.562 242.307 568.88 241.733C569.288 240.963 568.88 239.966 568.17 239.452C567.46 238.953 566.553 238.848 565.677 238.833C565.148 238.183 565.571 237.201 566.1 236.536C566.614 235.872 567.248 235.116 567.052 234.3C566.75 233.062 565.027 233.016 563.773 233.258C563.305 232.518 563.32 231.581 563.094 230.735C562.867 229.889 562.187 228.998 561.326 229.103C560.51 229.209 559.997 230.131 559.196 230.327C558.259 230.554 557.458 229.723 556.718 229.103C555.978 228.484 554.709 228.091 554.195 228.907C553.893 229.39 554.074 230.085 553.757 230.554C553.213 231.385 551.914 230.871 551.113 230.282C550.313 229.693 549.029 229.149 548.47 229.98C548.303 230.236 548.258 230.554 548.152 230.841C547.775 231.929 546.596 232.487 545.675 233.182C544.753 233.877 544.028 235.282 544.798 236.143C545.176 236.567 545.856 236.733 546.052 237.277C546.294 237.956 545.599 238.561 545.055 239.014C544.149 239.784 543.983 242.096 545.176 242.715C545.675 242.987 546.415 243.063 546.536 243.622C546.642 244.12 546.143 244.498 545.811 244.891C544.889 245.948 545.282 247.837 546.536 248.441C546.823 248.577 547.17 248.698 547.276 249C547.352 249.211 547.276 249.453 547.201 249.665C547.08 250.088 547.049 250.526 547.08 250.949C547.095 251.1 547.125 251.251 547.231 251.357C547.336 251.447 547.472 251.462 547.608 251.462C549.346 251.538 550.177 250.934 551.234 252.429C551.34 252.58 551.446 252.716 551.597 252.807C551.733 252.898 551.914 252.913 552.08 252.928C553.274 253.018 554.044 252.278 555.132 252.142C556.643 251.946 556.96 252.731 558.289 253.351C560.42 254.318 561.432 253.713 561.824 252.293Z" fill="#407BFF"/>
<path d="M572.176 259.258C572.282 258.896 572.342 258.473 572.357 258.019C572.508 255.451 574.956 255.859 577.041 255.512C578.672 255.24 574.367 251.13 577.645 249.801C578.249 249.559 578.914 249.272 579.231 248.698C579.639 247.928 579.231 246.93 578.521 246.417C577.811 245.918 576.905 245.813 576.028 245.797C575.5 245.148 575.923 244.166 576.451 243.501C576.965 242.836 577.6 242.081 577.403 241.265C577.101 240.026 575.379 239.981 574.125 240.223C573.657 239.483 573.672 238.546 573.445 237.7C573.218 236.854 572.539 235.962 571.678 236.068C570.862 236.174 570.348 237.096 569.547 237.292C568.611 237.519 567.81 236.688 567.07 236.068C566.329 235.449 565.06 235.056 564.547 235.872C564.245 236.355 564.426 237.05 564.109 237.519C563.565 238.349 562.266 237.836 561.465 237.247C560.664 236.657 559.38 236.114 558.821 236.945C558.655 237.201 558.61 237.519 558.504 237.806C558.126 238.893 556.948 239.452 556.026 240.147C555.105 240.842 554.38 242.247 555.15 243.108C555.528 243.531 556.208 243.697 556.404 244.241C556.646 244.921 555.951 245.51 555.407 245.979C554.5 246.749 554.334 249.061 555.528 249.68C556.026 249.952 556.766 250.028 556.887 250.587C556.993 251.085 556.495 251.463 556.162 251.856C555.241 252.913 555.633 254.801 556.887 255.406C557.174 255.542 557.522 255.663 557.628 255.95C557.703 256.161 557.628 256.403 557.552 256.614C557.431 257.037 557.401 257.475 557.431 257.898C557.446 258.05 557.477 258.201 557.582 258.306C557.688 258.397 557.824 258.412 557.96 258.412C559.697 258.488 560.528 257.883 561.586 259.379C561.691 259.53 561.797 259.666 561.948 259.757C562.084 259.847 562.266 259.862 562.432 259.878C563.625 259.968 564.396 259.228 565.483 259.092C566.994 258.896 567.311 259.681 568.641 260.301C570.771 261.298 571.783 260.693 572.176 259.258Z" fill="#407BFF"/>
<path d="M569.031 268.083C569.031 268.083 564.695 274.202 563.215 276.151C561.719 278.085 554.256 290.186 553.244 298.177C553.138 299.023 553.032 299.764 552.927 300.413C556.13 321.594 555.631 360.36 555.525 367.007H545.358C545.267 359.529 544.406 291.107 544.074 289.022C543.741 286.817 539.481 278.402 532.924 274.942C526.353 271.483 520.688 260.046 520.688 260.046H522.787C522.787 260.046 526.67 267.056 532.184 270.939C532.985 271.498 533.816 271.966 534.662 272.404C534.465 266.089 536.852 260.031 536.852 260.031L537.985 261.074C536.46 267.328 536.656 271.316 537.124 273.628C538.983 274.549 540.901 275.637 542.835 277.45C548.561 270.002 551.779 252.961 551.779 252.961L553.244 253.762C553.244 253.762 552.761 258.384 551.356 264.216C550.283 268.627 547.125 276.921 545.66 280.698C547.125 282.723 548.576 285.351 549.981 288.826C550.147 288.584 550.328 288.358 550.54 288.161C554.271 284.792 561.281 268.854 561.281 268.854C562.973 265.153 560.39 255.423 560.39 255.423H562.354L563.23 263.929L568.155 258.551L569.046 259.291L563.819 266.014L561.13 274.519L568.14 266.754L569.031 268.083Z" fill="#263238"/>
<path d="M558.777 366.99H525.314C524.845 365.419 526.054 363.53 527.383 363.274C529.015 362.941 530.647 360.086 530.722 358.258C530.798 356.43 533.729 350.825 538.291 354.285C542.853 357.744 541.464 354.798 544.772 353.816C548.065 352.849 550.15 355.644 548.7 357.744C548.7 357.744 552.009 356.913 553.383 360.01C554.743 363.107 553.383 365.026 553.383 365.026C553.383 365.026 557.568 364.905 558.777 366.99Z" fill="#407BFF"/>
<path d="M473.821 367.855C473.972 366.662 473.897 364.939 472.431 364.456C470.135 363.701 468.76 361.918 468.836 359.894C468.911 357.884 466.494 355.92 464.666 357.809C462.838 359.697 463.095 356.358 460.663 355.543C458.245 354.727 456.191 356.706 456.856 358.504C457.52 360.301 455.133 361.435 452.263 359.894C449.408 358.368 446.25 361.147 446.854 363.323C447.459 365.498 446.96 365.74 445.147 365.015C443.606 364.396 441.068 365.785 441.008 367.84H473.821V367.855Z" fill="#407BFF"/>
<path d="M439.862 294.973C439.786 294.686 439.741 294.354 439.71 293.991C439.59 291.952 437.641 292.269 435.979 291.997C434.68 291.786 438.109 288.507 435.495 287.45C435.012 287.253 434.483 287.027 434.242 286.573C433.909 285.969 434.242 285.168 434.816 284.761C435.39 284.353 436.115 284.277 436.795 284.262C437.218 283.748 436.87 282.963 436.462 282.434C436.054 281.905 435.541 281.301 435.707 280.651C435.949 279.669 437.323 279.624 438.321 279.82C438.683 279.231 438.683 278.476 438.864 277.811C439.046 277.131 439.574 276.421 440.269 276.512C440.919 276.587 441.327 277.328 441.961 277.479C442.702 277.66 443.351 276.995 443.941 276.497C444.53 275.998 445.542 275.696 445.95 276.346C446.192 276.739 446.04 277.282 446.297 277.66C446.735 278.325 447.763 277.917 448.397 277.433C449.032 276.965 450.059 276.527 450.497 277.192C450.633 277.388 450.663 277.645 450.739 277.872C451.041 278.748 451.978 279.186 452.718 279.745C453.458 280.304 454.032 281.422 453.413 282.102C453.111 282.434 452.567 282.57 452.416 283.008C452.219 283.552 452.778 284.02 453.201 284.398C453.927 285.017 454.047 286.845 453.096 287.359C452.688 287.571 452.114 287.631 452.008 288.084C451.917 288.477 452.325 288.794 452.582 289.096C453.307 289.927 453.005 291.438 452.008 291.921C451.781 292.027 451.494 292.118 451.419 292.36C451.358 292.526 451.419 292.722 451.479 292.888C451.57 293.221 451.6 293.568 451.57 293.916C451.555 294.037 451.54 294.157 451.449 294.233C451.373 294.308 451.252 294.309 451.147 294.324C449.772 294.384 449.107 293.901 448.261 295.094C448.186 295.215 448.095 295.321 447.974 295.396C447.853 295.457 447.732 295.487 447.597 295.487C446.645 295.562 446.025 294.973 445.164 294.867C443.956 294.716 443.714 295.336 442.656 295.834C440.995 296.59 440.179 296.106 439.862 294.973Z" fill="#407BFF"/>
<path d="M455.756 293.266C455.681 292.979 455.635 292.647 455.605 292.284C455.484 290.245 453.535 290.562 451.873 290.29C450.574 290.079 454.004 286.8 451.39 285.743C450.907 285.546 450.378 285.32 450.136 284.866C449.804 284.262 450.136 283.461 450.71 283.054C451.269 282.661 452.009 282.57 452.689 282.555C453.112 282.041 452.765 281.256 452.357 280.727C451.949 280.198 451.435 279.594 451.602 278.944C451.843 277.962 453.218 277.917 454.215 278.113C454.578 277.524 454.578 276.769 454.759 276.104C454.94 275.424 455.469 274.714 456.164 274.805C456.814 274.88 457.221 275.621 457.856 275.772C458.596 275.953 459.246 275.288 459.835 274.79C460.424 274.291 461.436 273.989 461.844 274.639C462.086 275.032 461.935 275.575 462.192 275.953C462.63 276.618 463.657 276.21 464.292 275.726C464.926 275.258 465.954 274.82 466.407 275.485C466.543 275.681 466.573 275.938 466.648 276.165C466.951 277.041 467.887 277.479 468.628 278.038C469.368 278.597 469.942 279.715 469.323 280.395C469.02 280.727 468.477 280.863 468.325 281.301C468.129 281.845 468.688 282.313 469.111 282.691C469.836 283.31 469.957 285.138 469.005 285.652C468.597 285.864 468.023 285.924 467.918 286.377C467.827 286.77 468.235 287.087 468.492 287.389C469.217 288.22 468.915 289.731 467.918 290.215C467.691 290.32 467.404 290.411 467.328 290.653C467.268 290.819 467.328 291.015 467.389 291.181C467.479 291.514 467.51 291.861 467.479 292.209C467.464 292.33 467.449 292.45 467.359 292.526C467.283 292.601 467.162 292.601 467.056 292.617C465.682 292.677 465.017 292.194 464.171 293.387C464.095 293.508 464.005 293.614 463.884 293.689C463.763 293.75 463.642 293.78 463.506 293.78C462.554 293.855 461.935 293.266 461.074 293.16C459.865 293.009 459.624 293.629 458.566 294.127C456.874 294.883 456.058 294.399 455.756 293.266Z" fill="#407BFF"/>
<path d="M457.28 283.145C457.204 282.858 457.159 282.526 457.128 282.163C457.008 280.124 455.059 280.441 453.397 280.169C452.098 279.957 455.527 276.679 452.913 275.622C452.43 275.425 451.901 275.199 451.66 274.745C451.327 274.141 451.66 273.34 452.234 272.932C452.793 272.54 453.533 272.449 454.213 272.434C454.636 271.92 454.288 271.135 453.88 270.606C453.472 270.077 452.959 269.473 453.125 268.823C453.367 267.841 454.741 267.796 455.739 267.992C456.101 267.403 456.101 266.648 456.282 265.983C456.464 265.303 456.992 264.593 457.687 264.684C458.337 264.759 458.745 265.5 459.379 265.651C460.12 265.832 460.769 265.167 461.358 264.669C461.948 264.17 462.96 263.868 463.368 264.518C463.61 264.91 463.458 265.454 463.715 265.832C464.153 266.497 465.181 266.089 465.815 265.605C466.45 265.137 467.477 264.699 467.915 265.364C468.051 265.56 468.081 265.817 468.157 266.043C468.459 266.92 469.396 267.358 470.136 267.917C470.876 268.476 471.45 269.594 470.831 270.274C470.529 270.606 469.985 270.742 469.834 271.18C469.637 271.724 470.196 272.192 470.619 272.57C471.344 273.189 471.465 275.017 470.514 275.531C470.106 275.742 469.532 275.803 469.426 276.256C469.335 276.649 469.743 276.966 470 277.268C470.725 278.099 470.423 279.61 469.426 280.093C469.199 280.199 468.912 280.29 468.837 280.531C468.776 280.698 468.837 280.894 468.897 281.06C468.988 281.393 469.018 281.74 468.988 282.088C468.973 282.208 468.958 282.329 468.867 282.405C468.791 282.48 468.671 282.48 468.565 282.495C467.19 282.556 466.525 282.072 465.679 283.266C465.604 283.387 465.513 283.493 465.392 283.568C465.271 283.628 465.15 283.659 465.014 283.659C464.063 283.734 463.443 283.145 462.582 283.039C461.374 282.888 461.132 283.508 460.074 284.006C458.397 284.762 457.597 284.278 457.28 283.145Z" fill="#407BFF"/>
<path d="M467.737 288.192C467.661 287.905 467.616 287.573 467.585 287.21C467.465 285.17 465.516 285.488 463.854 285.216C462.555 285.004 465.984 281.726 463.371 280.668C462.887 280.472 462.358 280.245 462.117 279.792C461.784 279.188 462.117 278.387 462.691 277.979C463.25 277.587 463.99 277.496 464.67 277.481C465.093 276.967 464.745 276.182 464.337 275.653C463.929 275.124 463.416 274.52 463.582 273.87C463.824 272.888 465.198 272.843 466.196 273.039C466.558 272.45 466.558 271.695 466.739 271.03C466.921 270.35 467.449 269.64 468.144 269.731C468.794 269.806 469.202 270.546 469.836 270.698C470.577 270.879 471.226 270.214 471.816 269.716C472.405 269.217 473.417 268.915 473.825 269.564C474.067 269.957 473.915 270.501 474.172 270.879C474.61 271.544 475.638 271.136 476.272 270.652C476.907 270.184 477.934 269.746 478.372 270.411C478.508 270.607 478.538 270.864 478.614 271.09C478.916 271.967 479.853 272.405 480.593 272.964C481.333 273.523 481.907 274.641 481.288 275.32C480.986 275.653 480.442 275.789 480.291 276.227C480.094 276.771 480.653 277.239 481.076 277.617C481.802 278.236 481.922 280.064 480.971 280.578C480.563 280.789 479.989 280.85 479.883 281.303C479.792 281.696 480.2 282.013 480.457 282.315C481.182 283.146 480.88 284.657 479.883 285.14C479.656 285.246 479.369 285.337 479.294 285.578C479.233 285.745 479.294 285.941 479.354 286.107C479.445 286.439 479.475 286.787 479.445 287.134C479.43 287.255 479.415 287.376 479.324 287.452C479.248 287.527 479.128 287.527 479.022 287.542C477.647 287.603 476.982 287.119 476.136 288.313C476.061 288.434 475.97 288.539 475.849 288.615C475.728 288.675 475.607 288.706 475.472 288.706C474.52 288.781 473.9 288.192 473.039 288.086C471.831 287.935 471.589 288.555 470.531 289.053C468.854 289.808 468.054 289.325 467.737 288.192Z" fill="#407BFF"/>
<path d="M478.311 285.862C478.235 285.575 478.19 285.242 478.16 284.88C478.039 282.84 476.09 283.158 474.428 282.886C473.129 282.674 476.558 279.396 473.945 278.338C473.461 278.142 472.933 277.915 472.691 277.462C472.358 276.858 472.691 276.057 473.265 275.649C473.824 275.256 474.564 275.166 475.244 275.151C475.667 274.637 475.319 273.851 474.912 273.323C474.504 272.794 473.99 272.19 474.156 271.54C474.398 270.558 475.773 270.513 476.77 270.709C477.132 270.12 477.132 269.365 477.314 268.7C477.495 268.02 478.024 267.31 478.719 267.401C479.368 267.476 479.776 268.216 480.411 268.367C481.151 268.549 481.801 267.884 482.39 267.385C482.979 266.887 483.991 266.585 484.399 267.234C484.641 267.627 484.49 268.171 484.747 268.549C485.185 269.213 486.212 268.806 486.846 268.322C487.481 267.854 488.508 267.416 488.946 268.08C489.082 268.277 489.113 268.534 489.188 268.76C489.49 269.637 490.427 270.075 491.167 270.634C491.907 271.193 492.482 272.311 491.862 272.99C491.56 273.323 491.016 273.459 490.865 273.897C490.669 274.441 491.228 274.909 491.651 275.287C492.376 275.906 492.497 277.734 491.545 278.248C491.137 278.459 490.563 278.52 490.457 278.973C490.366 279.366 490.774 279.683 491.031 279.985C491.756 280.816 491.454 282.327 490.457 282.81C490.231 282.916 489.943 283.007 489.868 283.248C489.807 283.414 489.868 283.611 489.928 283.777C490.019 284.109 490.049 284.457 490.019 284.804C490.004 284.925 489.989 285.046 489.898 285.122C489.823 285.197 489.702 285.197 489.596 285.212C488.221 285.273 487.556 284.789 486.71 285.983C486.635 286.104 486.544 286.209 486.423 286.285C486.303 286.345 486.182 286.376 486.046 286.376C485.094 286.451 484.475 285.862 483.613 285.756C482.405 285.605 482.163 286.224 481.106 286.723C479.429 287.478 478.628 286.995 478.311 285.862Z" fill="#407BFF"/>
<path d="M478.442 297.165C478.382 296.939 478.337 296.682 478.322 296.395C478.231 294.794 476.69 295.035 475.391 294.824C474.363 294.658 477.068 292.074 475.013 291.243C474.635 291.092 474.212 290.911 474.016 290.548C473.759 290.065 474.016 289.43 474.469 289.128C474.907 288.811 475.481 288.751 476.025 288.736C476.358 288.328 476.086 287.708 475.768 287.3C475.451 286.877 475.043 286.409 475.164 285.895C475.345 285.125 476.433 285.095 477.219 285.246C477.506 284.777 477.506 284.188 477.642 283.659C477.778 283.131 478.201 282.572 478.76 282.632C479.273 282.693 479.591 283.282 480.089 283.403C480.678 283.539 481.177 283.025 481.645 282.632C482.098 282.239 482.914 281.998 483.232 282.511C483.428 282.813 483.307 283.252 483.503 283.554C483.851 284.082 484.652 283.75 485.165 283.388C485.664 283.01 486.465 282.677 486.827 283.191C486.933 283.342 486.963 283.554 487.023 283.735C487.265 284.415 488.006 284.762 488.58 285.2C489.154 285.639 489.622 286.515 489.123 287.059C488.882 287.331 488.459 287.436 488.338 287.769C488.187 288.192 488.625 288.569 488.957 288.856C489.531 289.34 489.622 290.79 488.882 291.183C488.564 291.349 488.096 291.394 488.021 291.742C487.945 292.059 488.262 292.301 488.474 292.543C489.048 293.207 488.806 294.386 488.021 294.763C487.839 294.854 487.613 294.914 487.552 295.111C487.507 295.247 487.552 295.398 487.598 295.534C487.673 295.791 487.688 296.063 487.673 296.335C487.658 296.425 487.643 296.531 487.582 296.591C487.522 296.652 487.431 296.652 487.341 296.652C486.253 296.697 485.724 296.319 485.075 297.256C485.014 297.347 484.939 297.437 484.848 297.498C484.757 297.543 484.652 297.558 484.546 297.573C483.806 297.634 483.307 297.165 482.627 297.075C481.675 296.954 481.479 297.437 480.648 297.83C479.334 298.45 478.684 298.057 478.442 297.165Z" fill="#407BFF"/>
<path d="M484.369 293.266C484.294 292.979 484.248 292.647 484.218 292.284C484.097 290.245 482.149 290.562 480.487 290.29C479.187 290.079 482.617 286.8 480.003 285.743C479.52 285.546 478.991 285.32 478.749 284.866C478.417 284.262 478.749 283.461 479.323 283.054C479.882 282.661 480.623 282.57 481.303 282.555C481.726 282.041 481.378 281.256 480.97 280.727C480.562 280.198 480.049 279.594 480.215 278.944C480.457 277.962 481.831 277.917 482.828 278.113C483.191 277.524 483.191 276.769 483.372 276.104C483.554 275.424 484.082 274.714 484.777 274.805C485.427 274.88 485.835 275.621 486.469 275.772C487.21 275.953 487.859 275.288 488.448 274.79C489.038 274.291 490.05 273.989 490.458 274.639C490.699 275.032 490.548 275.575 490.805 275.953C491.243 276.618 492.271 276.21 492.905 275.726C493.54 275.258 494.567 274.82 495.005 275.485C495.141 275.681 495.171 275.938 495.247 276.165C495.549 277.041 496.485 277.479 497.226 278.038C497.966 278.597 498.54 279.715 497.921 280.395C497.619 280.727 497.075 280.863 496.924 281.301C496.727 281.845 497.286 282.313 497.709 282.691C498.434 283.31 498.555 285.138 497.603 285.652C497.196 285.864 496.621 285.924 496.516 286.377C496.425 286.77 496.833 287.087 497.09 287.389C497.815 288.22 497.513 289.731 496.516 290.215C496.289 290.32 496.002 290.411 495.927 290.653C495.866 290.819 495.927 291.015 495.987 291.181C496.078 291.514 496.108 291.861 496.078 292.209C496.062 292.33 496.047 292.45 495.957 292.526C495.881 292.601 495.76 292.601 495.655 292.617C494.28 292.677 493.615 292.194 492.769 293.387C492.694 293.508 492.603 293.614 492.482 293.689C492.361 293.75 492.24 293.78 492.104 293.78C491.153 293.855 490.533 293.266 489.672 293.16C488.463 293.009 488.222 293.629 487.164 294.127C485.487 294.883 484.687 294.399 484.369 293.266Z" fill="#407BFF"/>
<path d="M467.737 275.743C467.661 275.456 467.616 275.123 467.585 274.761C467.465 272.721 465.516 273.038 463.854 272.767C462.555 272.555 465.984 269.277 463.371 268.219C462.887 268.023 462.358 267.796 462.117 267.343C461.784 266.739 462.117 265.938 462.691 265.53C463.25 265.137 463.99 265.047 464.67 265.032C465.093 264.518 464.745 263.732 464.337 263.204C463.929 262.675 463.416 262.07 463.582 261.421C463.824 260.439 465.198 260.394 466.196 260.59C466.558 260.001 466.558 259.245 466.739 258.581C466.921 257.901 467.449 257.191 468.144 257.281C468.794 257.357 469.202 258.097 469.836 258.248C470.577 258.43 471.226 257.765 471.816 257.266C472.405 256.768 473.417 256.466 473.825 257.115C474.067 257.508 473.915 258.052 474.172 258.43C474.61 259.094 475.638 258.686 476.272 258.203C476.907 257.735 477.934 257.297 478.372 257.961C478.508 258.158 478.538 258.414 478.614 258.641C478.916 259.517 479.853 259.955 480.593 260.514C481.333 261.073 481.907 262.191 481.288 262.871C480.986 263.204 480.442 263.34 480.291 263.778C480.094 264.322 480.653 264.79 481.076 265.168C481.802 265.787 481.922 267.615 480.971 268.129C480.563 268.34 479.989 268.401 479.883 268.854C479.792 269.247 480.2 269.564 480.457 269.866C481.182 270.697 480.88 272.208 479.883 272.691C479.656 272.797 479.369 272.887 479.294 273.129C479.233 273.295 479.294 273.492 479.354 273.658C479.445 273.99 479.475 274.338 479.445 274.685C479.43 274.806 479.415 274.927 479.324 275.002C479.248 275.078 479.128 275.078 479.022 275.093C477.647 275.154 476.982 274.67 476.136 275.864C476.061 275.984 475.97 276.09 475.849 276.166C475.728 276.226 475.607 276.256 475.472 276.256C474.52 276.332 473.9 275.743 473.039 275.637C471.831 275.486 471.589 276.105 470.531 276.604C468.854 277.359 468.054 276.876 467.737 275.743Z" fill="#407BFF"/>
<path d="M454.151 276.438C454.075 276.151 454.03 275.819 454 275.456C453.879 273.417 451.93 273.734 450.268 273.462C448.969 273.25 452.398 269.972 449.785 268.915C449.301 268.718 448.772 268.492 448.531 268.038C448.198 267.434 448.531 266.633 449.105 266.225C449.664 265.833 450.404 265.742 451.084 265.727C451.507 265.213 451.159 264.428 450.751 263.899C450.344 263.37 449.83 262.766 449.996 262.116C450.238 261.134 451.613 261.089 452.61 261.285C452.972 260.696 452.972 259.941 453.153 259.276C453.335 258.596 453.864 257.886 454.558 257.977C455.208 258.052 455.616 258.793 456.25 258.944C456.991 259.125 457.64 258.46 458.23 257.962C458.819 257.463 459.831 257.161 460.239 257.811C460.481 258.203 460.329 258.747 460.586 259.125C461.024 259.79 462.052 259.382 462.686 258.898C463.321 258.43 464.348 257.992 464.786 258.657C464.922 258.853 464.952 259.11 465.028 259.336C465.33 260.213 466.267 260.651 467.007 261.21C467.747 261.769 468.321 262.887 467.702 263.567C467.4 263.899 466.856 264.035 466.705 264.473C466.508 265.017 467.067 265.485 467.49 265.863C468.216 266.482 468.336 268.31 467.385 268.824C466.977 269.035 466.403 269.096 466.297 269.549C466.206 269.942 466.614 270.259 466.871 270.561C467.596 271.392 467.294 272.903 466.297 273.386C466.07 273.492 465.783 273.583 465.708 273.824C465.647 273.991 465.708 274.187 465.768 274.353C465.859 274.686 465.889 275.033 465.859 275.381C465.844 275.501 465.829 275.622 465.738 275.698C465.662 275.773 465.542 275.773 465.436 275.788C464.061 275.849 463.396 275.365 462.55 276.559C462.475 276.68 462.384 276.785 462.263 276.861C462.142 276.921 462.022 276.952 461.886 276.952C460.934 277.027 460.314 276.438 459.453 276.332C458.245 276.181 458.003 276.801 456.945 277.299C455.269 278.055 454.468 277.571 454.151 276.438Z" fill="#407BFF"/>
<path d="M445.901 281.997C445.825 281.71 445.78 281.377 445.75 281.015C445.629 278.975 443.68 279.292 442.018 279.02C440.719 278.809 444.148 275.531 441.535 274.473C441.051 274.277 440.522 274.05 440.281 273.597C439.948 272.993 440.281 272.192 440.855 271.784C441.414 271.391 442.154 271.301 442.834 271.285C443.257 270.772 442.909 269.986 442.501 269.457C442.094 268.929 441.58 268.324 441.746 267.675C441.988 266.693 443.363 266.648 444.36 266.844C444.722 266.255 444.722 265.499 444.904 264.835C445.085 264.155 445.614 263.445 446.308 263.535C446.958 263.611 447.366 264.351 448.001 264.502C448.741 264.684 449.39 264.019 449.98 263.52C450.569 263.022 451.581 262.72 451.989 263.369C452.231 263.762 452.08 264.306 452.336 264.684C452.774 265.348 453.802 264.94 454.436 264.457C455.071 263.989 456.098 263.55 456.551 264.215C456.687 264.412 456.717 264.668 456.793 264.895C457.095 265.771 458.032 266.209 458.772 266.768C459.512 267.327 460.086 268.445 459.467 269.125C459.165 269.457 458.621 269.593 458.47 270.032C458.274 270.575 458.833 271.044 459.256 271.421C459.981 272.041 460.102 273.869 459.15 274.383C458.742 274.594 458.168 274.654 458.062 275.108C457.971 275.5 458.379 275.818 458.636 276.12C459.361 276.951 459.059 278.461 458.062 278.945C457.835 279.051 457.548 279.141 457.473 279.383C457.412 279.549 457.473 279.746 457.533 279.912C457.624 280.244 457.654 280.592 457.624 280.939C457.609 281.06 457.594 281.181 457.503 281.256C457.428 281.332 457.307 281.332 457.201 281.347C455.826 281.407 455.161 280.924 454.315 282.117C454.24 282.238 454.149 282.344 454.028 282.42C453.907 282.48 453.787 282.51 453.651 282.51C452.699 282.586 452.08 281.997 451.218 281.891C450.01 281.74 449.768 282.359 448.711 282.858C447.019 283.613 446.218 283.13 445.901 281.997Z" fill="#407BFF"/>
<path d="M448.414 289.021C448.414 289.021 451.859 293.9 453.052 295.441C454.246 296.982 460.183 306.621 460.999 312.996C461.089 313.676 461.165 314.265 461.255 314.779C458.702 331.669 459.095 362.563 459.186 367.851H467.298C467.374 361.884 468.069 307.361 468.311 305.699C468.582 303.932 471.967 297.224 477.209 294.474C482.436 291.725 486.968 282.6 486.968 282.6H485.306C485.306 282.6 482.209 288.19 477.813 291.287C477.179 291.74 476.514 292.102 475.834 292.465C475.985 287.419 474.082 282.6 474.082 282.6L473.175 283.431C474.384 288.416 474.233 291.604 473.87 293.432C472.39 294.172 470.864 295.033 469.323 296.484C464.76 290.546 462.192 276.965 462.192 276.965L461.029 277.599C461.029 277.599 461.406 281.286 462.54 285.924C463.401 289.444 465.908 296.061 467.087 299.052C465.924 300.668 464.76 302.753 463.642 305.533C463.522 305.337 463.37 305.155 463.204 305.004C460.228 302.315 454.638 289.61 454.638 289.61C453.279 286.649 455.348 278.899 455.348 278.899H453.792L453.097 285.682L449.169 281.406L448.459 281.996L452.629 287.344L454.774 294.127L449.185 287.933L448.414 289.021Z" fill="#263238"/>
<path d="M456.586 367.853H483.251C483.628 366.599 482.661 365.103 481.604 364.892C480.305 364.635 479.005 362.354 478.945 360.888C478.885 359.438 476.543 354.966 472.917 357.716C469.276 360.48 470.394 358.124 467.75 357.353C465.122 356.583 463.46 358.803 464.623 360.48C464.623 360.48 461.979 359.816 460.892 362.278C459.804 364.741 460.892 366.282 460.892 366.282C460.892 366.282 457.553 366.206 456.586 367.853Z" fill="#407BFF"/>
<path d="M57.3987 371.509C57.58 370.014 57.5045 367.853 55.6462 367.234C52.7607 366.282 51.0385 364.046 51.1442 361.508C51.2349 358.985 48.1983 356.523 45.9171 358.895C43.6358 361.266 43.938 357.067 40.9014 356.054C37.8648 355.042 35.2814 357.505 36.1123 359.771C36.9433 362.037 33.952 363.442 30.3564 361.523C26.7609 359.605 22.8178 363.094 23.5732 365.829C24.3286 368.563 23.7092 368.865 21.443 367.959C19.5093 367.189 16.3216 368.926 16.2461 371.509H57.3987Z" fill="#407BFF"/>
<path d="M73.3323 280.065C73.4381 279.702 73.4985 279.279 73.5136 278.826C73.6647 276.258 76.1121 276.666 78.1969 276.318C79.8285 276.046 75.5229 271.937 78.8012 270.608C79.4055 270.366 80.0702 270.079 80.3875 269.505C80.7954 268.734 80.3875 267.737 79.6774 267.224C78.9674 266.725 78.0609 266.619 77.1847 266.604C76.6559 265.954 77.079 264.972 77.6077 264.308C78.1214 263.643 78.7559 262.888 78.5595 262.072C78.2573 260.833 76.5351 260.788 75.2812 261.029C74.8128 260.289 74.8279 259.353 74.6013 258.506C74.3747 257.66 73.6949 256.769 72.8338 256.875C72.018 256.981 71.5043 257.902 70.7036 258.099C69.767 258.325 68.9663 257.494 68.226 256.875C67.4857 256.256 66.2167 255.863 65.7031 256.679C65.4009 257.162 65.5822 257.857 65.2649 258.325C64.7211 259.156 63.4218 258.642 62.6212 258.053C61.8205 257.464 60.5363 256.92 59.9774 257.751C59.8112 258.008 59.7659 258.325 59.6601 258.612C59.2824 259.7 58.104 260.259 57.1825 260.954C56.2609 261.649 55.5358 263.054 56.3062 263.915C56.6839 264.338 57.3638 264.504 57.5602 265.048C57.8019 265.728 57.1069 266.317 56.5631 266.785C55.6566 267.556 55.4904 269.867 56.6839 270.487C57.1825 270.759 57.9227 270.834 58.0436 271.393C58.1494 271.892 57.6508 272.269 57.3184 272.662C56.3969 273.72 56.7897 275.608 58.0436 276.212C58.3306 276.348 58.6781 276.469 58.7839 276.756C58.8594 276.968 58.7839 277.21 58.7083 277.421C58.5875 277.844 58.5573 278.282 58.5875 278.705C58.6026 278.856 58.6328 279.007 58.7385 279.113C58.8443 279.204 58.9803 279.219 59.1162 279.219C60.8536 279.294 61.6845 278.69 62.742 280.186C62.8478 280.337 62.9535 280.473 63.1046 280.563C63.2406 280.654 63.4218 280.669 63.588 280.684C64.7815 280.775 65.552 280.035 66.6397 279.899C68.1505 279.702 68.4677 280.488 69.7972 281.107C71.9273 282.104 72.9395 281.5 73.3323 280.065Z" fill="#407BFF"/>
<path d="M53.4065 277.92C53.5123 277.558 53.5727 277.135 53.5878 276.681C53.7389 274.113 56.1863 274.521 58.2711 274.174C59.9027 273.902 55.5971 269.792 58.8754 268.463C59.4797 268.221 60.1444 267.934 60.4617 267.36C60.8696 266.59 60.4617 265.593 59.7516 265.079C59.0416 264.58 58.1351 264.475 57.2589 264.46C56.7302 263.81 57.1532 262.828 57.6819 262.163C58.1956 261.499 58.8301 260.743 58.6337 259.927C58.3316 258.689 56.6093 258.643 55.3554 258.885C54.8871 258.145 54.9022 257.208 54.6756 256.362C54.4489 255.516 53.7691 254.625 52.908 254.73C52.0922 254.836 51.5785 255.758 50.7778 255.954C49.8412 256.181 49.0405 255.35 48.3002 254.73C47.56 254.111 46.2909 253.718 45.7773 254.534C45.4751 255.017 45.6564 255.712 45.3392 256.181C44.7953 257.012 43.4961 256.498 42.6954 255.909C41.8947 255.32 40.6105 254.776 40.0516 255.607C39.8854 255.863 39.8401 256.181 39.7343 256.468C39.3566 257.555 38.1782 258.114 37.2567 258.809C36.3351 259.504 35.61 260.909 36.3805 261.77C36.7581 262.193 37.438 262.36 37.6344 262.904C37.8761 263.583 37.1812 264.188 36.6373 264.641C35.7309 265.411 35.5647 267.723 36.7581 268.342C37.2567 268.614 37.997 268.69 38.1178 269.249C38.2236 269.747 37.725 270.125 37.3927 270.518C36.4711 271.575 36.8639 273.464 38.1178 274.068C38.4049 274.204 38.7523 274.325 38.8581 274.627C38.9336 274.838 38.8581 275.08 38.7825 275.292C38.6617 275.715 38.6315 276.153 38.6617 276.576C38.6768 276.727 38.707 276.878 38.8128 276.984C38.9185 277.074 39.0545 277.089 39.1904 277.089C40.9278 277.165 41.7587 276.561 42.8162 278.056C42.922 278.207 43.0277 278.343 43.1788 278.434C43.3148 278.525 43.4961 278.54 43.6622 278.555C44.8557 278.645 45.6262 277.905 46.7139 277.769C48.2247 277.573 48.5419 278.358 49.8714 278.978C52.0015 279.945 53.0288 279.34 53.4065 277.92Z" fill="#407BFF"/>
<path d="M51.4886 265.231C51.5943 264.869 51.6547 264.461 51.6699 263.993C51.8209 261.424 54.2683 261.832 56.3531 261.485C57.9848 261.213 53.6791 257.104 56.9574 255.774C57.5617 255.532 58.2265 255.245 58.5437 254.671C58.9516 253.901 58.5437 252.904 57.8337 252.405C57.1236 251.907 56.2172 251.801 55.341 251.786C54.8122 251.136 55.2352 250.154 55.764 249.489C56.2776 248.825 56.9121 248.069 56.7157 247.254C56.4136 246.015 54.6913 245.969 53.4374 246.211C52.9691 245.471 52.9842 244.534 52.7576 243.688C52.531 242.842 51.8511 241.951 50.99 242.057C50.1742 242.162 49.6606 243.084 48.8599 243.28C47.9232 243.507 47.1225 242.676 46.3823 242.057C45.642 241.437 44.373 241.044 43.8593 241.86C43.5572 242.344 43.7385 243.039 43.4212 243.507C42.8773 244.338 41.5781 243.824 40.7774 243.235C39.9767 242.646 38.6926 242.102 38.1336 242.933C37.9674 243.19 37.9221 243.507 37.8163 243.794C37.4387 244.882 36.2603 245.441 35.3387 246.136C34.4172 246.83 33.692 248.235 34.4625 249.097C34.8402 249.52 35.52 249.686 35.7164 250.23C35.9581 250.91 35.2632 251.499 34.7193 251.967C33.8129 252.737 33.6467 255.049 34.8402 255.668C35.3387 255.94 36.079 256.016 36.1999 256.575C36.3056 257.073 35.8071 257.451 35.4747 257.844C34.5531 258.901 34.9459 260.79 36.1999 261.394C36.4869 261.53 36.8344 261.651 36.9401 261.938C37.0157 262.149 36.9401 262.391 36.8646 262.603C36.7437 263.026 36.7135 263.464 36.7437 263.887C36.7588 264.038 36.789 264.189 36.8948 264.295C37.0005 264.385 37.1365 264.4 37.2725 264.4C39.0098 264.476 39.8407 263.872 40.8983 265.367C41.004 265.518 41.1098 265.654 41.2608 265.745C41.3968 265.836 41.5781 265.851 41.7443 265.866C42.9378 265.956 43.7082 265.216 44.796 265.08C46.3067 264.884 46.624 265.669 47.9534 266.289C50.0836 267.256 51.0958 266.651 51.4886 265.231Z" fill="#407BFF"/>
<path d="M38.3792 271.544C38.4849 271.181 38.5454 270.758 38.5605 270.305C38.7115 267.737 41.1589 268.145 43.2438 267.797C44.8754 267.525 40.5698 263.416 43.8481 262.087C44.4524 261.845 45.1171 261.558 45.4344 260.984C45.8423 260.213 45.4344 259.216 44.7243 258.718C44.0143 258.219 43.1078 258.113 42.2316 258.098C41.7028 257.449 42.1258 256.467 42.6546 255.802C43.1682 255.137 43.8027 254.382 43.6063 253.566C43.3042 252.327 41.582 252.282 40.328 252.524C39.8597 251.783 39.8748 250.847 39.6482 250.001C39.4216 249.155 38.7418 248.263 37.8806 248.369C37.0648 248.475 36.5512 249.396 35.7505 249.593C34.8138 249.819 34.0131 248.988 33.2729 248.369C32.5326 247.75 31.2636 247.357 30.7499 248.173C30.4478 248.656 30.6291 249.336 30.3118 249.819C29.768 250.65 28.4687 250.137 27.668 249.547C26.8673 248.958 25.5832 248.414 25.0242 249.245C24.858 249.502 24.8127 249.819 24.707 250.106C24.3293 251.194 23.1509 251.753 22.2294 252.448C21.3078 253.143 20.5826 254.548 21.3531 255.409C21.7308 255.832 22.4106 255.998 22.607 256.542C22.8488 257.222 22.1538 257.826 21.6099 258.28C20.7035 259.05 20.5373 261.361 21.7308 261.981C22.2294 262.253 22.9696 262.328 23.0905 262.887C23.1962 263.386 22.6977 263.764 22.3653 264.156C21.4438 265.214 21.8366 267.102 23.0905 267.707C23.3775 267.843 23.725 267.963 23.8307 268.266C23.9063 268.477 23.8307 268.719 23.7552 268.93C23.6343 269.353 23.6041 269.776 23.6343 270.214C23.6495 270.365 23.6797 270.517 23.7854 270.622C23.8912 270.713 24.0271 270.728 24.1631 270.728C25.9005 270.804 26.7314 270.199 27.7889 271.695C27.8946 271.846 28.0004 271.982 28.1515 272.073C28.2874 272.163 28.4687 272.178 28.6349 272.193C29.8284 272.284 30.5989 271.544 31.6866 271.408C33.1973 271.211 33.5146 271.997 34.8441 272.616C36.9742 273.583 37.9864 272.979 38.3792 271.544Z" fill="#407BFF"/>
<path d="M25.1136 268.628C25.2193 268.265 25.2797 267.842 25.2949 267.389C25.4459 264.821 27.8933 265.229 29.9781 264.881C31.6098 264.609 27.3041 260.5 30.5824 259.171C31.1867 258.929 31.8515 258.642 32.1687 258.068C32.5766 257.297 32.1687 256.3 31.4587 255.802C30.7486 255.303 29.8422 255.197 28.966 255.182C28.4372 254.533 28.8602 253.551 29.389 252.886C29.9026 252.221 30.5371 251.466 30.3407 250.65C30.0386 249.411 28.3163 249.366 27.0624 249.608C26.5941 248.867 26.6092 247.931 26.3826 247.085C26.156 246.239 25.4761 245.347 24.615 245.453C23.7992 245.559 23.2856 246.48 22.4849 246.677C21.5482 246.903 20.7475 246.072 20.0073 245.453C19.267 244.834 17.998 244.441 17.4843 245.257C17.1822 245.74 17.3635 246.42 17.0462 246.903C16.5023 247.734 15.2031 247.221 14.4024 246.631C13.6017 246.042 12.3176 245.498 11.7586 246.329C11.5924 246.586 11.5471 246.903 11.4413 247.19C11.0637 248.278 9.88528 248.837 8.96373 249.532C8.04217 250.227 7.31702 251.632 8.0875 252.493C8.46518 252.916 9.14502 253.082 9.34141 253.626C9.58313 254.306 8.88819 254.91 8.34432 255.364C7.43788 256.134 7.2717 258.445 8.46518 259.065C8.96373 259.337 9.70399 259.412 9.82485 259.971C9.9306 260.47 9.43206 260.847 9.09969 261.24C8.17814 262.298 8.57093 264.186 9.82485 264.791C10.1119 264.926 10.4594 265.047 10.5651 265.349C10.6407 265.561 10.5651 265.803 10.4896 266.014C10.3687 266.437 10.3385 266.86 10.3687 267.298C10.3838 267.449 10.414 267.6 10.5198 267.706C10.6255 267.797 10.7615 267.812 10.8975 267.812C12.6348 267.888 13.4657 267.283 14.5233 268.779C14.629 268.93 14.7348 269.066 14.8858 269.157C15.0218 269.247 15.2031 269.262 15.3693 269.277C16.5628 269.368 17.3332 268.628 18.421 268.492C19.9317 268.295 20.249 269.081 21.5784 269.7C23.7086 270.652 24.7208 270.048 25.1136 268.628Z" fill="#407BFF"/>
<path d="M24.9305 282.815C25.006 282.528 25.0514 282.196 25.0816 281.848C25.2024 279.824 27.1211 280.156 28.7678 279.869C30.0519 279.658 26.6527 276.425 29.2361 275.382C29.7195 275.186 30.2332 274.974 30.4749 274.521C30.7922 273.917 30.4749 273.131 29.9159 272.739C29.357 272.346 28.6469 272.255 27.952 272.24C27.529 271.726 27.8764 270.956 28.2843 270.427C28.6922 269.898 29.1908 269.309 29.0397 268.66C28.8131 267.693 27.4383 267.647 26.4563 267.844C26.0938 267.255 26.0938 266.514 25.9276 265.85C25.7463 265.185 25.2175 264.475 24.5377 264.565C23.8881 264.641 23.4953 265.381 22.8608 265.517C22.1205 265.683 21.486 265.034 20.9119 264.55C20.3378 264.067 19.3256 263.765 18.9328 264.399C18.6911 264.777 18.8422 265.321 18.5854 265.699C18.1624 266.363 17.1351 265.94 16.5006 265.487C15.866 265.034 14.8689 264.596 14.4157 265.245C14.2798 265.442 14.2495 265.699 14.174 265.925C13.8719 266.786 12.9503 267.224 12.21 267.768C11.4849 268.327 10.9108 269.415 11.5302 270.095C11.8324 270.427 12.3611 270.563 12.5122 270.986C12.6935 271.515 12.1647 271.998 11.7266 272.361C11.0166 272.965 10.8806 274.778 11.8324 275.277C12.2252 275.488 12.8143 275.549 12.905 275.987C12.9956 276.379 12.6028 276.682 12.3309 276.984C11.6057 277.815 11.9079 279.295 12.905 279.779C13.1316 279.884 13.4035 279.975 13.4942 280.217C13.5546 280.383 13.4942 280.564 13.4337 280.746C13.3431 281.078 13.3129 281.41 13.3431 281.758C13.3582 281.879 13.3733 281.999 13.464 282.075C13.5395 282.151 13.6603 282.15 13.7661 282.166C15.1258 282.226 15.7905 281.743 16.6214 282.936C16.697 283.057 16.7876 283.163 16.9084 283.238C17.0142 283.299 17.1502 283.314 17.2861 283.329C18.2228 283.404 18.8271 282.815 19.6882 282.709C20.8817 282.558 21.1234 283.178 22.1658 283.661C23.8277 284.417 24.6283 283.948 24.9305 282.815Z" fill="#407BFF"/>
<path d="M17.4964 277.92C17.6021 277.558 17.6626 277.135 17.6777 276.681C17.8287 274.113 20.2761 274.521 22.361 274.174C23.9926 273.902 19.687 269.792 22.9653 268.463C23.5696 268.221 24.2343 267.934 24.5515 267.36C24.9594 266.59 24.5515 265.593 23.8415 265.079C23.1314 264.58 22.225 264.475 21.3488 264.46C20.82 263.81 21.243 262.828 21.7718 262.163C22.2854 261.499 22.9199 260.743 22.7235 259.927C22.4214 258.689 20.6991 258.643 19.4452 258.885C18.9769 258.145 18.992 257.208 18.7654 256.362C18.5388 255.516 17.859 254.625 16.9978 254.73C16.182 254.836 15.6684 255.758 14.8677 255.954C13.931 256.181 13.1303 255.35 12.3901 254.73C11.6498 254.111 10.3808 253.718 9.86712 254.534C9.56497 255.017 9.74627 255.712 9.42901 256.181C8.88515 257.012 7.58591 256.498 6.78521 255.909C5.98452 255.32 4.70039 254.776 4.14142 255.607C3.97523 255.863 3.92991 256.181 3.82415 256.468C3.44647 257.555 2.26809 258.114 1.34654 258.809C0.424986 259.504 -0.300167 260.909 0.470311 261.77C0.847997 262.193 1.52783 262.36 1.72422 262.904C1.96594 263.583 1.271 264.188 0.727135 264.641C-0.17931 265.411 -0.345489 267.723 0.847997 268.342C1.34654 268.614 2.0868 268.69 2.20766 269.249C2.31341 269.747 1.81487 270.125 1.48251 270.518C0.560953 271.575 0.953746 273.464 2.20766 274.068C2.4947 274.204 2.84218 274.325 2.94793 274.627C3.02346 274.838 2.94793 275.08 2.87239 275.292C2.75153 275.715 2.72131 276.153 2.75153 276.576C2.76664 276.727 2.79686 276.878 2.90261 276.984C3.00836 277.074 3.14433 277.089 3.28029 277.089C5.01765 277.165 5.84855 276.561 6.90607 278.056C7.01182 278.207 7.11758 278.343 7.26865 278.434C7.40462 278.525 7.58591 278.54 7.75209 278.555C8.94557 278.645 9.71605 277.905 10.8038 277.769C12.3145 277.573 12.6318 278.358 13.9612 278.978C16.0914 279.945 17.1036 279.34 17.4964 277.92Z" fill="#407BFF"/>
<path d="M38.3792 255.938C38.4849 255.576 38.5454 255.168 38.5605 254.7C38.7115 252.131 41.1589 252.539 43.2438 252.192C44.8754 251.92 40.5698 247.811 43.8481 246.481C44.4524 246.239 45.1171 245.952 45.4344 245.378C45.8423 244.608 45.4344 243.611 44.7243 243.112C44.0143 242.614 43.1078 242.508 42.2316 242.493C41.7028 241.843 42.1258 240.861 42.6546 240.196C43.1682 239.532 43.8027 238.776 43.6063 237.961C43.3042 236.722 41.582 236.676 40.328 236.918C39.8597 236.178 39.8748 235.241 39.6482 234.395C39.4216 233.549 38.7418 232.658 37.8806 232.764C37.0648 232.869 36.5512 233.791 35.7505 233.987C34.8138 234.214 34.0131 233.383 33.2729 232.764C32.5326 232.144 31.2636 231.751 30.7499 232.567C30.4478 233.051 30.6291 233.73 30.3118 234.214C29.768 235.045 28.4687 234.531 27.668 233.942C26.8673 233.353 25.5832 232.809 25.0242 233.64C24.858 233.897 24.8127 234.214 24.707 234.501C24.3293 235.589 23.1509 236.148 22.2294 236.843C21.3078 237.538 20.5826 238.943 21.3531 239.804C21.7308 240.227 22.4106 240.393 22.607 240.937C22.8488 241.617 22.1538 242.206 21.6099 242.674C20.7035 243.445 20.5373 245.756 21.7308 246.375C22.2294 246.647 22.9696 246.723 23.0905 247.282C23.1962 247.78 22.6977 248.158 22.3653 248.551C21.4438 249.608 21.8366 251.497 23.0905 252.101C23.3775 252.237 23.725 252.358 23.8307 252.645C23.9063 252.856 23.8307 253.098 23.7552 253.31C23.6343 253.733 23.6041 254.156 23.6343 254.594C23.6495 254.745 23.6797 254.896 23.7854 255.002C23.8912 255.092 24.0271 255.107 24.1631 255.107C25.9005 255.183 26.7314 254.579 27.7889 256.074C27.8946 256.225 28.0004 256.361 28.1515 256.452C28.2874 256.543 28.4687 256.558 28.6349 256.573C29.8284 256.664 30.5989 255.923 31.6866 255.787C33.1973 255.591 33.5146 256.376 34.8441 256.996C36.9742 257.978 37.9864 257.374 38.3792 255.938Z" fill="#407BFF"/>
<path d="M55.4144 256.813C55.5201 256.451 55.5805 256.028 55.5956 255.575C55.7467 253.006 58.1941 253.414 60.2789 253.067C61.9105 252.795 57.6049 248.686 60.8832 247.356C61.4875 247.114 62.1523 246.827 62.4695 246.253C62.8774 245.483 62.4695 244.486 61.7595 243.987C61.0494 243.489 60.143 243.383 59.2667 243.368C58.738 242.718 59.161 241.736 59.6897 241.071C60.2034 240.407 60.8379 239.651 60.6415 238.836C60.3394 237.597 58.6171 237.551 57.3632 237.793C56.8949 237.053 56.91 236.116 56.6834 235.27C56.4568 234.424 55.7769 233.533 54.9158 233.639C54.1 233.744 53.5863 234.666 52.7857 234.862C51.849 235.089 51.0483 234.258 50.308 233.639C49.5678 233.019 48.2987 232.626 47.7851 233.442C47.4829 233.926 47.6642 234.621 47.347 235.089C46.8031 235.92 45.5039 235.406 44.7032 234.817C43.9025 234.228 42.6184 233.684 42.0594 234.515C41.8932 234.772 41.8479 235.089 41.7421 235.376C41.3644 236.464 40.1861 237.023 39.2645 237.718C38.343 238.413 37.6178 239.818 38.3883 240.679C38.766 241.102 39.4458 241.268 39.6422 241.812C39.8839 242.492 39.189 243.081 38.6451 243.549C37.7387 244.32 37.5725 246.631 38.766 247.25C39.2645 247.522 40.0048 247.598 40.1256 248.157C40.2314 248.655 39.7328 249.033 39.4005 249.426C38.4789 250.483 38.8717 252.372 40.1256 252.976C40.4127 253.112 40.7601 253.233 40.8659 253.535C40.9414 253.747 40.8659 253.988 40.7904 254.2C40.6695 254.623 40.6393 255.046 40.6695 255.484C40.6846 255.635 40.7148 255.786 40.8206 255.892C40.9263 255.982 41.0623 255.998 41.1983 255.998C42.9356 256.073 43.7665 255.469 44.824 256.964C44.9298 257.116 45.0355 257.251 45.1866 257.342C45.3226 257.433 45.5039 257.448 45.6701 257.463C46.8635 257.554 47.634 256.813 48.7218 256.677C50.2325 256.481 50.5498 257.267 51.8792 257.886C54.0094 258.838 55.0216 258.233 55.4144 256.813Z" fill="#407BFF"/>
<path d="M65.7659 263.793C65.8717 263.431 65.9321 263.023 65.9472 262.554C66.0983 259.986 68.5457 260.394 70.6305 260.047C72.2621 259.775 67.9565 255.666 71.2348 254.336C71.8391 254.094 72.5038 253.807 72.8211 253.233C73.229 252.463 72.8211 251.466 72.111 250.952C71.401 250.453 70.4945 250.348 69.6183 250.333C69.0895 249.683 69.5125 248.701 70.0413 248.036C70.555 247.372 71.1895 246.616 70.9931 245.8C70.6909 244.562 68.9687 244.516 67.7148 244.758C67.2464 244.018 67.2615 243.081 67.0349 242.235C66.8083 241.389 66.1285 240.498 65.2674 240.603C64.4516 240.709 63.9379 241.631 63.1372 241.827C62.2005 242.054 61.3999 241.223 60.6596 240.603C59.9193 239.984 58.6503 239.591 58.1367 240.407C57.8345 240.89 58.0158 241.585 57.6985 242.054C57.1547 242.885 55.8554 242.371 55.0547 241.782C54.254 241.193 52.9699 240.649 52.4109 241.48C52.2448 241.736 52.1994 242.054 52.0937 242.341C51.716 243.429 50.5376 243.987 49.6161 244.682C48.6945 245.377 47.9694 246.782 48.7398 247.643C49.1175 248.066 49.7974 248.233 49.9938 248.777C50.2355 249.456 49.5405 250.061 48.9967 250.514C48.0902 251.284 47.924 253.596 49.1175 254.215C49.6161 254.487 50.3563 254.563 50.4772 255.122C50.5829 255.62 50.0844 255.998 49.752 256.391C48.8305 257.448 49.2233 259.337 50.4772 259.941C50.7642 260.077 51.1117 260.198 51.2175 260.485C51.293 260.696 51.2175 260.938 51.1419 261.149C51.0211 261.573 50.9908 261.996 51.0211 262.434C51.0362 262.585 51.0664 262.736 51.1721 262.842C51.2779 262.932 51.4139 262.947 51.5498 262.947C53.2872 263.023 54.1181 262.419 55.1756 263.914C55.2814 264.065 55.3871 264.201 55.5382 264.292C55.6741 264.367 55.8554 264.398 56.0216 264.413C57.2151 264.503 57.9856 263.763 59.0733 263.627C60.5841 263.431 60.9013 264.216 62.2308 264.836C64.3609 265.818 65.3731 265.213 65.7659 263.793Z" fill="#407BFF"/>
<path d="M62.6245 272.603C62.6245 272.603 58.2887 278.721 56.8081 280.655C55.3125 282.589 47.8494 294.69 46.8372 302.682C46.7315 303.528 46.6257 304.268 46.52 304.918C49.7227 326.098 49.2242 364.864 49.1185 371.511H38.9361C38.8454 364.033 37.9843 295.627 37.6519 293.527C37.3196 291.321 33.0593 282.906 26.5026 279.447C19.9309 275.987 14.2656 264.551 14.2656 264.551H16.3656C16.3656 264.551 20.2482 271.561 25.7624 275.443C26.5631 276.002 27.394 276.47 28.24 276.924C28.0436 270.609 30.4306 264.551 30.4306 264.551L31.5636 265.593C30.0378 271.848 30.2342 275.836 30.7025 278.147C32.5607 279.069 34.4794 280.157 36.4131 281.97C42.1388 274.522 45.3567 257.48 45.3567 257.48L46.8221 258.281C46.8221 258.281 46.3387 262.904 44.9337 268.736C43.8611 273.147 40.7036 281.441 39.2382 285.218C40.7036 287.242 42.1539 289.871 43.5589 293.345C43.7251 293.104 43.9064 292.877 44.1179 292.681C47.8494 289.312 54.8593 273.373 54.8593 273.373C56.5513 269.672 53.9679 259.943 53.9679 259.943H55.9319L56.8081 268.448L61.7331 263.07L62.6245 263.81L57.3973 270.533L54.7082 279.039L61.718 271.274L62.6245 272.603Z" fill="#263238"/>
<path d="M35.7734 371.51H69.2364C69.7047 369.938 68.4961 368.05 67.1667 367.793C65.5351 367.461 63.9035 364.605 63.8279 362.777C63.7524 360.949 60.8215 355.345 56.2591 358.804C51.6967 362.264 53.0865 359.318 49.778 358.336C46.4846 357.369 44.3998 360.164 45.8501 362.264C45.8501 362.264 42.5416 361.433 41.1668 364.53C39.8071 367.627 41.1668 369.546 41.1668 369.546C41.1668 369.546 36.9669 369.425 35.7734 371.51Z" fill="#407BFF"/>
<path d="M224.027 72.9233L234.738 62.2129V72.9233" stroke="#263238" stroke-width="0.75" stroke-miterlimit="10" stroke-linecap="round" stroke-linejoin="round"/>
<path d="M236.434 72.9233L247.144 62.2129V72.9233" stroke="#263238" stroke-width="0.75" stroke-miterlimit="10" stroke-linecap="round" stroke-linejoin="round"/>
<path d="M248.859 72.9233L259.57 62.2129V72.9233" stroke="#263238" stroke-width="0.75" stroke-miterlimit="10" stroke-linecap="round" stroke-linejoin="round"/>
<path d="M256.965 72.9233L267.675 62.2129V72.9233" stroke="#263238" stroke-width="0.75" stroke-miterlimit="10" stroke-linecap="round" stroke-linejoin="round"/>
<path d="M273.691 72.9233L284.402 62.2129V72.9233" stroke="#263238" stroke-width="0.75" stroke-miterlimit="10" stroke-linecap="round" stroke-linejoin="round"/>
<path d="M286.105 72.9233L296.816 62.2129V72.9233" stroke="#263238" stroke-width="0.75" stroke-miterlimit="10" stroke-linecap="round" stroke-linejoin="round"/>
<path d="M305.715 72.9233L316.425 62.2129V72.9233" stroke="#263238" stroke-width="0.75" stroke-miterlimit="10" stroke-linecap="round" stroke-linejoin="round"/>
<path d="M318.133 72.9233L328.843 62.2129V72.9233" stroke="#263238" stroke-width="0.75" stroke-miterlimit="10" stroke-linecap="round" stroke-linejoin="round"/>
<path d="M327.688 72.9233L338.398 62.2129V72.9233" stroke="#263238" stroke-width="0.75" stroke-miterlimit="10" stroke-linecap="round" stroke-linejoin="round"/>
<path d="M344.418 72.9233L355.128 62.2129V72.9233" stroke="#263238" stroke-width="0.75" stroke-miterlimit="10" stroke-linecap="round" stroke-linejoin="round"/>
<path d="M351.07 72.9233L361.781 62.2129V72.9233" stroke="#263238" stroke-width="0.75" stroke-miterlimit="10" stroke-linecap="round" stroke-linejoin="round"/>
<path d="M361.148 72.9233L371.859 62.2129V72.9233" stroke="#263238" stroke-width="0.75" stroke-miterlimit="10" stroke-linecap="round" stroke-linejoin="round"/>
<path d="M438.51 56.3184H403.59V76.5747H438.51V56.3184Z" fill="#263238"/>
<path opacity="0.4" d="M438.51 56.3184H403.59V76.5747H438.51V56.3184Z" fill="white"/>
<path opacity="0.4" d="M438.511 56.3184H419.305V76.5747H438.511V56.3184Z" fill="white"/>
<path d="M401.373 56.3184H366.453V76.5747H401.373V56.3184Z" fill="#263238"/>
<path opacity="0.4" d="M401.373 56.3184H366.453V76.5747H401.373V56.3184Z" fill="white"/>
<path opacity="0.4" d="M401.359 56.3184H382.152V76.5747H401.359V56.3184Z" fill="white"/>
<path d="M219.839 56.3184H72.3516V76.5747H219.839V56.3184Z" fill="#263238"/>
<path opacity="0.4" d="M219.839 56.3184H72.3516V76.5747H219.839V56.3184Z" fill="white"/>
<path opacity="0.4" d="M219.851 56.3184H138.711V76.5747H219.851V56.3184Z" fill="white"/>
<path d="M446.963 322.756H62.4961V387.219H446.963V322.756Z" fill="#263238"/>
<path opacity="0.3" d="M446.963 322.756H62.4961V387.219H446.963V322.756Z" fill="white"/>
<path opacity="0.3" d="M446.959 322.756H142.684V387.219H446.959V322.756Z" fill="white"/>
<path opacity="0.2" d="M345.951 332.316H250.449V387.22H345.951V332.316Z" fill="black"/>
<path d="M241.169 338.686H223.73V383.109H241.169V338.686Z" fill="#407BFF"/>
<path d="M218.165 338.686H200.727V383.109H218.165V338.686Z" fill="#407BFF"/>
<path d="M195.165 338.686H177.727V383.109H195.165V338.686Z" fill="#407BFF"/>
<path d="M172.161 338.686H154.723V383.109H172.161V338.686Z" fill="#407BFF"/>
<path d="M439.677 338.686H422.238V383.109H439.677V338.686Z" fill="#407BFF"/>
<path d="M416.673 338.686H399.234V383.109H416.673V338.686Z" fill="#407BFF"/>
<path d="M393.673 338.686H376.234V383.109H393.673V338.686Z" fill="#407BFF"/>
<path d="M370.669 338.686H353.23V383.109H370.669V338.686Z" fill="#407BFF"/>
<path d="M137.604 338.686H123.559V383.109H137.604V338.686Z" fill="#407BFF"/>
<path d="M119.069 338.686H105.023V383.109H119.069V338.686Z" fill="#407BFF"/>
<path d="M100.557 338.686H86.5117V383.109H100.557V338.686Z" fill="#407BFF"/>
<path d="M82.0379 338.686H67.9922V383.109H82.0379V338.686Z" fill="#407BFF"/>
<g opacity="0.5">
<path d="M241.169 338.686H223.73V383.109H241.169V338.686Z" fill="white"/>
<path d="M218.165 338.686H200.727V383.109H218.165V338.686Z" fill="white"/>
<path d="M195.165 338.686H177.727V383.109H195.165V338.686Z" fill="white"/>
<path d="M172.161 338.686H154.723V383.109H172.161V338.686Z" fill="white"/>
</g>
<g opacity="0.5">
<path d="M439.677 338.686H422.238V383.109H439.677V338.686Z" fill="white"/>
<path d="M416.673 338.686H399.234V383.109H416.673V338.686Z" fill="white"/>
<path d="M393.673 338.686H376.234V383.109H393.673V338.686Z" fill="white"/>
<path d="M370.669 338.686H353.23V383.109H370.669V338.686Z" fill="white"/>
</g>
<g opacity="0.5">
<path d="M137.604 338.686H123.559V383.109H137.604V338.686Z" fill="white"/>
<path d="M119.069 338.686H105.023V383.109H119.069V338.686Z" fill="white"/>
<path d="M100.557 338.686H86.5117V383.109H100.557V338.686Z" fill="white"/>
<path d="M82.0379 338.686H67.9922V383.109H82.0379V338.686Z" fill="white"/>
</g>
<g opacity="0.5">
<path d="M340.423 338.686H323.07V383.109H340.423V338.686Z" fill="white"/>
<path d="M317.528 338.686H300.176V383.109H317.528V338.686Z" fill="white"/>
<path d="M294.642 338.686H250.449V383.109H294.642V338.686Z" fill="white"/>
</g>
<path opacity="0.1" d="M345.937 332.316L312.641 387.22H250.449V332.316H345.937Z" fill="black"/>
<path d="M140.227 76.5742H57.8789V320.987H140.227V76.5742Z" fill="#407BFF"/>
<path opacity="0.4" d="M140.227 76.5742H57.8789V320.987H140.227V76.5742Z" fill="white"/>
<path opacity="0.1" d="M68.1953 76.5742V320.987" stroke="black" stroke-miterlimit="10"/>
<path opacity="0.1" d="M80.1211 76.5742V320.987" stroke="black" stroke-miterlimit="10"/>
<path opacity="0.1" d="M92.0508 76.5742V320.987" stroke="black" stroke-miterlimit="10"/>
<path opacity="0.1" d="M103.992 76.5742V320.987" stroke="black" stroke-miterlimit="10"/>
<path opacity="0.1" d="M115.906 76.5742V320.987" stroke="black" stroke-miterlimit="10"/>
<path opacity="0.1" d="M127.836 76.5742V320.987" stroke="black" stroke-miterlimit="10"/>
<g opacity="0.1">
<path d="M95.8469 76.5742L57.8789 137.803V108.159L77.4595 76.5742H95.8469Z" fill="white"/>
<path d="M117.613 76.5742L57.8789 172.896V164.256L112.25 76.5742H117.613Z" fill="white"/>
</g>
<g opacity="0.1">
<path d="M140.227 148.385V178.029L57.8789 310.838V281.194L140.227 148.385Z" fill="white"/>
<path d="M140.23 204.494V213.149L73.365 320.986H67.9883L140.23 204.494Z" fill="white"/>
</g>
<path d="M453.013 67.0156H135.41V332.317H453.013V67.0156Z" fill="#407BFF"/>
<path d="M48.4292 332.309H135.406V313.188H48.4292V332.309Z" fill="#407BFF"/>
<path d="M48.4292 86.1465L135.406 86.1465V67.0259L48.4292 67.0259V86.1465Z" fill="#407BFF"/>
<path d="M48.4292 135.375H135.406V116.254L48.4292 116.254V135.375Z" fill="#407BFF"/>
<path d="M48.4292 184.605H135.406V165.485H48.4292V184.605Z" fill="#407BFF"/>
<path d="M48.4292 233.85H135.406V214.729H48.4292V233.85Z" fill="#407BFF"/>
<path d="M48.4292 283.08H135.406V263.96H48.4292V283.08Z" fill="#407BFF"/>
<g opacity="0.6">
<path d="M48.4253 332.311H135.402V313.19H48.4253V332.311Z" fill="white"/>
<path d="M48.4253 86.1445L135.402 86.1445V67.024L48.4253 67.024V86.1445Z" fill="white"/>
<path d="M48.4253 135.373H135.402V116.252L48.4253 116.252V135.373Z" fill="white"/>
<path d="M48.4253 184.605H135.402V165.485H48.4253V184.605Z" fill="white"/>
<path d="M48.4253 233.85H135.402V214.729H48.4253V233.85Z" fill="white"/>
<path d="M48.4253 283.078H135.402V263.958H48.4253V283.078Z" fill="white"/>
</g>
<path opacity="0.6" d="M453.013 67.0156H135.41V332.317H453.013V67.0156Z" fill="white"/>
<path opacity="0.4" d="M453.014 67.0156H145.633V332.317H453.014V67.0156Z" fill="white"/>
<path d="M348.266 67.0156H250.449V332.317H348.266V67.0156Z" fill="#407BFF"/>
<path d="M442.566 86.1367H356.121V313.197H442.566V86.1367Z" fill="#407BFF"/>
<path opacity="0.5" d="M442.566 86.1367H356.121V313.197H442.566V86.1367Z" fill="white"/>
<g opacity="0.1">
<path d="M369.113 86.1367V313.197" stroke="black" stroke-miterlimit="10"/>
<path d="M384.219 86.1367V313.197" stroke="black" stroke-miterlimit="10"/>
<path d="M399.328 86.1367V313.197" stroke="black" stroke-miterlimit="10"/>
<path d="M414.438 86.1367V313.197" stroke="black" stroke-miterlimit="10"/>
<path d="M429.555 86.1367V313.197" stroke="black" stroke-miterlimit="10"/>
<path d="M442.547 86.1367H356.102V313.183H442.547V86.1367Z" stroke="black" stroke-miterlimit="10"/>
<path d="M442.561 116.254H356.102" stroke="black" stroke-miterlimit="10"/>
<path d="M356.102 135.377H442.561" stroke="black" stroke-miterlimit="10"/>
<path d="M442.561 165.496H356.102" stroke="black" stroke-miterlimit="10"/>
<path d="M356.102 184.615H442.561" stroke="black" stroke-miterlimit="10"/>
<path d="M442.561 214.717H356.102" stroke="black" stroke-miterlimit="10"/>
<path d="M356.102 233.855H442.561" stroke="black" stroke-miterlimit="10"/>
<path d="M442.561 263.957H356.102" stroke="black" stroke-miterlimit="10"/>
<path d="M356.102 283.08H442.561" stroke="black" stroke-miterlimit="10"/>
</g>
<g opacity="0.1">
<path d="M442.562 136.684V166.328L356.117 305.735V276.077L442.562 136.684Z" fill="white"/>
<path d="M442.565 192.779V201.434L373.271 313.196H367.895L442.565 192.779Z" fill="white"/>
</g>
<g opacity="0.1">
<path d="M442.557 252.674V282.318L423.408 313.198H405.035L442.557 252.674Z" fill="white"/>
<path d="M442.558 308.77V313.197H439.812L442.558 308.77Z" fill="white"/>
</g>
<path d="M242.601 86.1367H156.156V313.197H242.601V86.1367Z" fill="#407BFF"/>
<path opacity="0.5" d="M242.601 86.1367H156.156V313.197H242.601V86.1367Z" fill="white"/>
<g opacity="0.1">
<path d="M169.168 86.1367V313.197" stroke="black" stroke-miterlimit="10"/>
<path d="M184.262 86.1367V313.197" stroke="black" stroke-miterlimit="10"/>
<path d="M199.367 86.1367V313.197" stroke="black" stroke-miterlimit="10"/>
<path d="M214.48 86.1367V313.197" stroke="black" stroke-miterlimit="10"/>
<path d="M229.586 86.1367V313.197" stroke="black" stroke-miterlimit="10"/>
<path d="M242.601 86.1367H156.156V313.183H242.601V86.1367Z" stroke="black" stroke-miterlimit="10"/>
<path d="M242.601 116.254H156.156" stroke="black" stroke-miterlimit="10"/>
<path d="M156.156 135.377H242.601" stroke="black" stroke-miterlimit="10"/>
<path d="M242.601 165.496H156.156" stroke="black" stroke-miterlimit="10"/>
<path d="M156.156 184.615H242.601" stroke="black" stroke-miterlimit="10"/>
<path d="M242.601 214.717H156.156" stroke="black" stroke-miterlimit="10"/>
<path d="M156.156 233.855H242.601" stroke="black" stroke-miterlimit="10"/>
<path d="M242.601 263.957H156.156" stroke="black" stroke-miterlimit="10"/>
<path d="M156.156 283.08H242.601" stroke="black" stroke-miterlimit="10"/>
</g>
<g opacity="0.1">
<path d="M196.309 86.1367L156.156 150.888V121.258L177.936 86.1367H196.309Z" fill="white"/>
<path d="M218.09 86.1367L156.156 186.009V177.355L212.713 86.1367H218.09Z" fill="white"/>
</g>
<g opacity="0.1">
<path d="M242.601 154.906V184.536L162.827 313.204H156.156V294.299L242.601 154.906Z" fill="white"/>
<path d="M242.6 210.988V219.657L184.592 313.204H179.215L242.6 210.988Z" fill="white"/>
</g>
<path opacity="0.7" d="M348.266 67.0156H250.449V332.317H348.266V67.0156Z" fill="white"/>
<path d="M396.55 320.988H392.222H295.354H291.027H250.457V332.317H291.027V387.22H295.354H297.798H302.126V332.317H385.451V387.22H389.778H392.222H396.55V332.317V320.988Z" fill="#407BFF"/>
<path opacity="0.3" d="M396.551 320.988V387.22H389.779V332.317H302.127V387.22H295.355V320.988H396.551Z" fill="white"/>
<path d="M280.593 165.492H260.883V313.195H280.593V165.492Z" fill="#407BFF"/>
<path d="M309.362 165.492H289.652V313.195H309.362V165.492Z" fill="#407BFF"/>
<path d="M338.128 165.492H318.418V313.195H338.128V165.492Z" fill="#407BFF"/>
<g opacity="0.5">
<path d="M280.593 165.492H260.883V313.195H280.593V165.492Z" fill="white"/>
<path d="M309.358 165.492H289.648V313.195H309.358V165.492Z" fill="white"/>
<path d="M338.128 165.492H318.418V313.195H338.128V165.492Z" fill="white"/>
</g>
<path d="M319.071 93.666H313.755H310.187V113.467H288.959V93.666H285.392H280.04H276.473V141.615H280.04H285.392H288.959V121.066H310.187V141.615H313.755H319.071H322.638V93.666H319.071Z" fill="#407BFF"/>
<path d="M280.091 93.6504H276.523V141.564H280.091V93.6504Z" fill="#1640A0"/>
<path d="M313.775 93.6504H310.207V113.415H313.775V93.6504Z" fill="#1640A0"/>
<path d="M313.775 121.016H310.207V141.565H313.775V121.016Z" fill="#1640A0"/>
<path d="M263.713 44.0156C263.685 44.0156 263.656 44.0156 263.641 44.0156C263.426 44.0156 263.21 44.03 262.994 44.0444C262.75 44.03 262.52 44.0156 262.276 44.0156C256.281 44.0156 251.867 48.2423 251.867 53.9497C251.867 59.6571 256.281 63.8838 262.276 63.8838C262.52 63.8838 262.764 63.8694 262.994 63.855C263.21 63.8694 263.426 63.8838 263.641 63.8838C263.67 63.8838 263.699 63.8838 263.713 63.8838C269.708 63.8838 274.122 59.6859 274.122 53.9497C274.122 48.2135 269.708 44.0156 263.713 44.0156ZM260.551 59.9878C260.205 59.8152 259.875 59.614 259.573 59.3983C259.53 59.3696 259.501 59.3408 259.458 59.3121C259.185 59.0964 258.926 58.8664 258.696 58.622C258.624 58.5501 258.567 58.4639 258.509 58.392C258.322 58.162 258.135 57.9319 257.963 57.6732C257.876 57.5438 257.819 57.3856 257.733 57.2419C257.618 57.0262 257.503 56.8106 257.402 56.5662C257.316 56.3362 257.258 56.0918 257.201 55.8617C257.158 55.6749 257.086 55.5167 257.057 55.3154C256.971 54.8842 256.928 54.4241 256.928 53.9497V53.9353V53.9209C256.928 53.4465 256.971 53.0008 257.057 52.5552C257.086 52.3683 257.158 52.1958 257.201 52.0233C257.258 51.7789 257.316 51.5345 257.402 51.3188C257.488 51.0888 257.618 50.8732 257.733 50.6431C257.805 50.4994 257.876 50.3556 257.963 50.2118C258.121 49.9531 258.308 49.723 258.509 49.493C258.567 49.4211 258.624 49.3349 258.696 49.263C258.926 49.0186 259.185 48.7886 259.458 48.5729C259.501 48.5442 259.53 48.5154 259.573 48.4867C259.875 48.2567 260.205 48.0698 260.551 47.8972C260.565 47.8972 260.579 47.8829 260.579 47.8829C261.312 47.5235 262.118 47.2934 262.994 47.2215C266.517 47.5522 269.061 50.255 269.061 53.9497C269.061 57.6444 266.517 60.3328 262.994 60.6778C262.118 60.5916 261.312 60.3615 260.579 60.0165C260.565 60.0021 260.551 59.9878 260.551 59.9878Z" fill="#407BFF"/>
<path d="M280.271 49.6224C280.271 49.608 280.271 49.608 280.271 49.6224C280.271 49.4499 280.286 49.2774 280.329 49.1192C280.343 49.0473 280.372 48.9898 280.386 48.918C280.415 48.8317 280.444 48.7311 280.487 48.6448C280.53 48.5586 280.573 48.4867 280.631 48.4148C280.674 48.3573 280.717 48.2854 280.76 48.2279C280.832 48.1416 280.904 48.0698 280.99 47.9979C281.033 47.9547 281.091 47.9116 281.134 47.8685C281.235 47.7966 281.35 47.7103 281.465 47.6528C281.508 47.6241 281.565 47.5953 281.623 47.5666C281.766 47.4947 281.91 47.4372 282.068 47.3653C282.111 47.3509 282.169 47.3366 282.212 47.3222C282.385 47.2647 282.572 47.2072 282.787 47.164C282.83 47.1497 282.873 47.1497 282.902 47.1497C283.132 47.1065 283.377 47.0634 283.635 47.049C285.174 47.1497 286.827 47.6241 288.365 48.5298L288.61 47.926C288.854 48.0266 289.098 48.1704 289.328 48.2854C289.487 48.3717 289.645 48.4292 289.803 48.5154L290.939 45.7264C289.257 44.6194 286.827 44.0156 284.512 44.0156C284.44 44.0156 284.383 44.03 284.311 44.03C284.139 44.0444 283.966 44.0588 283.794 44.0588C283.549 44.0444 283.305 44.0156 283.075 44.0156C277.77 44.0156 275.297 46.6609 275.297 49.7806C275.297 56.9544 286.784 54.2228 286.784 58.392C286.784 59.7002 285.706 60.7066 283.218 60.8647C282.701 60.8216 282.183 60.7497 281.695 60.6347C281.666 60.6203 281.623 60.6203 281.594 60.6059C281.12 60.4909 280.645 60.3615 280.185 60.189C280.142 60.1746 280.084 60.1459 280.041 60.1315C279.61 59.959 279.179 59.7721 278.791 59.5565C278.747 59.5277 278.704 59.5133 278.661 59.4846C278.273 59.2546 277.899 59.0246 277.569 58.7658L277.454 59.0245L277.238 59.499C276.835 59.2689 276.462 59.0246 276.131 58.7658L274.895 61.5548C276.49 62.9349 279.509 63.8694 282.514 63.8694C282.701 63.8694 282.859 63.8406 283.046 63.8406C283.348 63.855 283.65 63.8694 283.952 63.8694C289.257 63.8694 291.758 61.2241 291.758 58.1332C291.729 51.0457 280.271 53.734 280.271 49.6224Z" fill="#407BFF"/>
<path d="M303.247 44.293H301.81H295.297H293.859V63.6148H295.297H297.439H298.877V58.0368H301.795H303.233C308.308 58.0368 311.456 55.4203 311.456 51.1649C311.47 46.8951 308.322 44.293 303.247 44.293ZM298.877 55.0034V47.3264H301.637C304.785 47.3264 306.41 48.7353 306.41 51.1649C306.41 53.5945 304.785 55.0034 301.637 55.0034H298.877Z" fill="#407BFF"/>
<path d="M349.008 44.293H347.57H345.471H344.034L335.336 63.6148H336.774H339.031H340.468L342.366 59.1438H350.589L352.516 63.6148H353.953H356.268H357.706L349.008 44.293ZM343.602 56.326L345.371 52.1856L346.492 49.5691L349.41 56.3404H343.602V56.326Z" fill="#407BFF"/>
<path d="M373.877 60.5814H372.425H363.77V44.293H362.332H360.176H358.738V63.6148H360.176H372.425H373.877V60.5814Z" fill="#407BFF"/>
<path d="M248.056 44.293H245.914H244.476V52.2719H235.922V44.293H234.485H232.328H230.891V63.6148H232.328H234.485H235.922V55.334H244.476V63.6148H245.914H248.056H249.494V44.293H248.056Z" fill="#407BFF"/>
<path d="M317.203 44.293H315.047H313.609V63.6148H315.047H317.203H318.641V44.293H317.203Z" fill="#407BFF"/>
<path d="M337.764 47.3264V44.293H336.327H321.375H319.938V47.3264H321.375H326.335V63.6148H327.773H329.929H331.367V47.3264H336.327H337.764Z" fill="#407BFF"/>
<g opacity="0.2">
<path d="M232.352 44.2871H230.914V63.5946H232.352V44.2871Z" fill="black"/>
<path d="M245.922 44.2871H244.484V52.2516H245.922V44.2871Z" fill="black"/>
<path d="M245.922 55.3145H244.484V63.5952H245.922V55.3145Z" fill="black"/>
<path d="M263.737 47.1484C262.299 47.1484 260.962 47.551 259.898 48.2698C260.79 47.6947 261.853 47.3353 263.018 47.2203C266.526 47.551 269.085 50.2393 269.085 53.9341C269.085 57.6288 266.526 60.3315 263.018 60.6622C261.278 60.5041 259.783 59.7565 258.705 58.6208C259.898 59.9434 261.695 60.7341 263.737 60.7341C267.618 60.7341 270.522 57.8876 270.522 53.9341C270.522 49.9949 267.618 47.1484 263.737 47.1484ZM253.328 53.9341C253.328 48.4998 257.325 44.4025 262.889 44.0288C262.687 44.0144 262.5 44 262.299 44C256.304 44 251.891 48.2267 251.891 53.9341C251.891 59.6559 256.304 63.8681 262.299 63.8681C262.544 63.8681 262.759 63.8538 263.004 63.8394C257.382 63.5231 253.328 59.4258 253.328 53.9341Z" fill="black"/>
<path d="M283.216 47.0781C282.842 47.1356 282.497 47.2219 282.195 47.3082C282.497 47.2075 282.828 47.1213 283.216 47.0781Z" fill="black"/>
<path d="M276.317 61.5546C277.769 62.791 280.342 63.6823 283.03 63.8405C282.843 63.8549 282.685 63.8692 282.498 63.8692C279.494 63.8692 276.475 62.9348 274.879 61.5546L276.13 58.7656C276.446 59.0388 276.834 59.2832 277.237 59.5132L276.317 61.5546Z" fill="black"/>
<path d="M288.213 58.3764C288.213 59.814 286.934 60.8922 283.929 60.8922C283.699 60.8922 283.469 60.8778 283.239 60.8635C285.698 60.691 286.776 59.6846 286.776 58.3764C286.776 54.2216 275.289 56.9531 275.289 49.7793C275.289 46.6596 277.776 44 283.067 44C283.182 44 283.311 44.0144 283.426 44.0288C278.883 44.3882 276.727 46.8753 276.727 49.7793C276.727 56.9531 288.213 54.2216 288.213 58.3764Z" fill="black"/>
<path d="M288.607 47.9245L288.363 48.5139C286.824 47.6082 285.157 47.1481 283.633 47.0475C283.892 47.0187 284.165 47.0044 284.467 47.0044C285.789 46.99 287.227 47.3063 288.607 47.9245Z" fill="black"/>
<path d="M289.225 48.1833C289.024 48.0827 288.822 48.0108 288.621 47.9102C288.822 47.9964 289.024 48.0827 289.225 48.1833Z" fill="black"/>
<path d="M303.082 47.3205H301.645C304.793 47.3205 306.418 48.7294 306.418 51.159C306.418 53.5886 304.793 54.9831 301.645 54.9831H303.082C306.231 54.9831 307.87 53.5886 307.87 51.159C307.87 48.7294 306.231 47.3205 303.082 47.3205ZM293.867 44.2871V63.5946H295.305V44.2871H293.867Z" fill="black"/>
<path d="M315.07 44.2871H313.633V63.5946H315.07V44.2871Z" fill="black"/>
<path d="M321.387 44.2871H319.949V47.3205H321.387V44.2871Z" fill="black"/>
<path d="M327.797 47.3203H326.359V63.5944H327.797V47.3203Z" fill="black"/>
<path d="M344.043 44.2871L335.359 63.5946H336.797L345.48 44.2871H344.043ZM347.22 47.8668L343.611 56.3201L346.515 49.5489L349.434 56.3201H350.871L347.22 47.8668ZM352.05 59.1235H350.613L352.553 63.5946H353.991L352.05 59.1235Z" fill="black"/>
<path d="M360.199 44.2871H358.762V63.5946H360.199V44.2871Z" fill="black"/>
<g opacity="0.4">
<path d="M262.883 44.03C262.926 44.0443 262.969 44.0443 263.012 44.0443C263.127 44.03 263.242 44.03 263.371 44.0156C263.199 44.0156 263.041 44.0156 262.883 44.03Z" fill="black"/>
<path d="M283.484 44.0288C283.585 44.0431 283.686 44.0575 283.786 44.0575C284.031 44.0431 284.261 44 284.505 44C284.16 44 283.815 44.0144 283.484 44.0288Z" fill="black"/>
</g>
</g>
<path d="M411.373 382.398C410.527 382.398 407.4 382.398 406.554 382.398C401.946 382.398 398.215 386.81 398.215 392.264C398.215 397.702 401.946 402.129 406.554 402.129C407.4 402.129 410.527 402.129 411.373 402.129C415.981 402.129 419.713 397.717 419.713 392.264C419.713 386.81 415.981 382.398 411.373 382.398Z" fill="#263238"/>
<path opacity="0.2" d="M419.714 392.264C419.714 397.702 415.982 402.129 411.374 402.129C406.767 402.129 403.035 397.717 403.035 392.264C403.035 386.825 406.767 382.398 411.374 382.398C415.982 382.398 419.714 386.81 419.714 392.264Z" fill="white"/>
<path opacity="0.2" d="M411.373 398.519C408.82 398.519 406.645 395.663 406.645 392.264C406.645 388.88 408.805 386.01 411.373 386.01C413.926 386.01 416.102 388.865 416.102 392.264C416.102 395.648 413.941 398.519 411.373 398.519Z" fill="black"/>
<path d="M480.909 382.398C480.063 382.398 476.935 382.398 476.089 382.398C471.482 382.398 467.75 386.81 467.75 392.264C467.75 397.702 471.482 402.129 476.089 402.129C476.935 402.129 480.063 402.129 480.909 402.129C485.516 402.129 489.248 397.717 489.248 392.264C489.248 386.81 485.516 382.398 480.909 382.398Z" fill="#263238"/>
<path opacity="0.2" d="M489.249 392.264C489.249 397.702 485.517 402.129 480.91 402.129C476.302 402.129 472.57 397.717 472.57 392.264C472.57 386.825 476.302 382.398 480.91 382.398C485.517 382.398 489.249 386.81 489.249 392.264Z" fill="white"/>
<path opacity="0.2" d="M480.908 398.519C478.355 398.519 476.18 395.663 476.18 392.264C476.18 388.88 478.34 386.01 480.908 386.01C483.461 386.01 485.637 388.865 485.637 392.264C485.637 395.648 483.477 398.519 480.908 398.519Z" fill="black"/>
<path d="M407.598 363.273V390.24C407.598 392.567 409.501 394.47 411.828 394.47H527.762C530.089 394.47 531.992 392.567 531.992 390.24V363.273H407.598Z" fill="#263238"/>
<path d="M450.666 382.398C449.82 382.398 446.693 382.398 445.847 382.398C441.239 382.398 437.508 386.81 437.508 392.264C437.508 397.702 441.239 402.129 445.847 402.129C446.693 402.129 449.82 402.129 450.666 402.129C455.274 402.129 459.006 397.717 459.006 392.264C459.006 386.81 455.274 382.398 450.666 382.398Z" fill="#263238"/>
<path opacity="0.2" d="M459.007 392.264C459.007 397.702 455.275 402.129 450.667 402.129C446.06 402.129 442.328 397.717 442.328 392.264C442.328 386.825 446.06 382.398 450.667 382.398C455.275 382.398 459.007 386.81 459.007 392.264Z" fill="white"/>
<path opacity="0.2" d="M450.666 398.519C448.113 398.519 445.938 395.663 445.938 392.264C445.938 388.88 448.098 386.01 450.666 386.01C453.219 386.01 455.395 388.865 455.395 392.264C455.395 395.648 453.234 398.519 450.666 398.519Z" fill="white"/>
<path d="M520.202 382.398C519.356 382.398 516.228 382.398 515.382 382.398C510.775 382.398 507.043 386.81 507.043 392.264C507.043 397.702 510.775 402.129 515.382 402.129C516.228 402.129 519.356 402.129 520.202 402.129C524.809 402.129 528.541 397.717 528.541 392.264C528.541 386.81 524.809 382.398 520.202 382.398Z" fill="#263238"/>
<path opacity="0.2" d="M528.542 392.264C528.542 397.702 524.81 402.129 520.203 402.129C515.595 402.129 511.863 397.717 511.863 392.264C511.863 386.825 515.595 382.398 520.203 382.398C524.81 382.398 528.542 386.81 528.542 392.264Z" fill="white"/>
<path opacity="0.2" d="M520.201 398.519C517.648 398.519 515.473 395.663 515.473 392.264C515.473 388.88 517.633 386.01 520.201 386.01C522.754 386.01 524.93 388.865 524.93 392.264C524.93 395.648 522.77 398.519 520.201 398.519Z" fill="white"/>
<path d="M470.926 327.998C470.926 329.539 469.672 330.808 468.131 330.808H438.611C437.07 330.808 435.801 329.539 435.801 327.998C435.801 326.457 437.07 325.203 438.611 325.203H468.131C469.672 325.203 470.926 326.457 470.926 327.998Z" fill="#407BFF"/>
<path d="M470.93 327.998C470.93 329.539 469.676 330.808 468.135 330.808H450.716C449.175 330.808 447.906 329.539 447.906 327.998C447.906 326.457 449.175 325.203 450.716 325.203H468.135C469.676 325.203 470.93 326.457 470.93 327.998Z" fill="#263238"/>
<path d="M470.921 327.998C470.921 329.539 469.667 330.808 468.126 330.808H455.24C453.699 330.808 452.43 329.539 452.43 327.998C452.43 326.457 453.699 325.203 455.24 325.203H468.126C469.667 325.203 470.921 326.457 470.921 327.998Z" fill="#407BFF"/>
<path d="M537.67 365.283V389.062C537.67 390.709 536.325 392.053 534.678 392.053L530.04 392.068C529.965 385.889 525.569 380.889 520.206 380.889C514.827 380.889 510.431 385.904 510.355 392.098L460.516 392.189C460.486 385.95 456.074 380.889 450.666 380.889C445.258 380.889 440.831 385.98 440.816 392.234L431.812 392.25C431.691 392.25 431.57 392.234 431.464 392.234C431.344 392.219 431.223 392.204 431.117 392.174H430.981L394.043 392.25C391.747 392.25 389.934 390.316 390.146 388.019C390.418 385.089 390.795 381.1 391.128 377.505C391.249 376.341 391.354 375.223 391.445 374.211C391.702 371.507 392.79 368.984 394.542 366.945V366.914C394.995 366.386 395.509 365.887 396.038 365.434L405.782 357.215L420.784 334.388C423.186 330.747 427.25 328.557 431.6 328.557H525.977C526.959 328.557 527.895 328.738 528.771 329.07C529.421 329.327 530.025 329.659 530.584 330.067C530.947 330.339 531.294 330.641 531.612 330.974C532.261 331.639 532.775 332.424 533.137 333.285C533.228 333.482 533.304 333.693 533.379 333.905C533.53 334.358 533.636 334.841 533.696 335.34L537.67 365.283Z" fill="#407BFF"/>
<path opacity="0.7" d="M537.67 365.283V389.062C537.67 390.709 536.325 392.053 534.678 392.053L530.04 392.068C529.965 385.889 525.569 380.889 520.206 380.889C514.827 380.889 510.431 385.904 510.355 392.098L460.516 392.189C460.486 385.95 456.074 380.889 450.666 380.889C445.258 380.889 440.831 385.98 440.816 392.234L431.812 392.25C431.691 392.25 431.57 392.234 431.464 392.234C431.344 392.219 431.223 392.204 431.117 392.174H430.981L394.043 392.25C391.747 392.25 389.934 390.316 390.146 388.019C390.418 385.089 390.795 381.1 391.128 377.505C391.249 376.341 391.354 375.223 391.445 374.211C391.702 371.507 392.79 368.984 394.542 366.945V366.914C394.995 366.386 395.509 365.887 396.038 365.434L405.782 357.215L420.784 334.388C423.186 330.747 427.25 328.557 431.6 328.557H525.977C526.959 328.557 527.895 328.738 528.771 329.07C529.421 329.327 530.025 329.659 530.584 330.067C530.947 330.339 531.294 330.641 531.612 330.974C532.261 331.639 532.775 332.424 533.137 333.285C533.228 333.482 533.304 333.693 533.379 333.905C533.53 334.358 533.636 334.841 533.696 335.34L537.67 365.283Z" fill="white"/>
<path opacity="0.3" d="M537.68 365.283V389.062C537.68 390.709 536.335 392.053 534.689 392.053L530.051 392.068C529.975 385.889 525.579 380.889 520.216 380.889C514.838 380.889 510.441 385.904 510.366 392.098L460.526 392.204V392.189C460.496 385.95 456.085 380.889 450.676 380.889C445.268 380.889 440.841 385.98 440.826 392.234V392.25L431.837 392.265C431.716 392.265 431.596 392.265 431.475 392.234C431.309 392.234 431.142 392.204 430.991 392.174C429.118 391.766 427.773 390.014 427.94 388.019C428.181 385.255 428.544 381.523 428.876 378.094C428.997 376.734 429.133 375.405 429.239 374.211C429.571 370.797 431.218 367.655 433.847 365.434L436.324 363.334L443.576 357.215L455.737 334.101C456.417 332.802 457.354 331.684 458.472 330.808C460.27 329.372 462.521 328.557 464.892 328.557H525.987C526.969 328.557 527.905 328.738 528.782 329.07C529.431 329.327 530.036 329.659 530.595 330.067C530.957 330.339 531.305 330.641 531.622 330.974C532.272 331.639 532.785 332.424 533.148 333.285C533.238 333.482 533.314 333.693 533.389 333.905C533.541 334.358 533.661 334.841 533.722 335.34L537.317 362.533L537.514 364.044L537.68 365.283Z" fill="white"/>
<path d="M407.598 356.31H441.816L451.998 337.592H420.046L407.598 356.31Z" fill="#263238"/>
<path opacity="0.6" d="M394.272 377.597C394.272 377.597 392.474 378.338 391.145 377.507C391.25 376.344 391.371 375.226 391.462 374.198C391.703 371.494 392.806 368.971 394.559 366.932C394.846 367.415 395.239 368.246 395.39 369.258C395.647 370.89 394.272 377.597 394.272 377.597Z" fill="white"/>
<path opacity="0.2" d="M396.26 369.756H423.272C423.272 369.756 419.918 376.6 420.402 378.594C420.402 378.594 414.177 381.585 406.337 381.585C398.496 381.585 395.414 377.899 395.414 377.899C395.414 377.899 396.502 370.874 396.26 369.756Z" fill="black"/>
<path d="M425.771 386.176C425.771 387.49 424.971 388.563 423.974 388.563C422.976 388.563 422.176 387.49 422.176 386.176C422.176 384.862 422.976 383.789 423.974 383.789C424.971 383.789 425.771 384.862 425.771 386.176Z" fill="white"/>
<path d="M393.274 388.399C394.267 388.399 395.072 387.33 395.072 386.012C395.072 384.694 394.267 383.625 393.274 383.625C392.281 383.625 391.477 384.694 391.477 386.012C391.477 387.33 392.281 388.399 393.274 388.399Z" fill="white"/>
<path d="M418.35 388.548C418.884 388.548 419.317 387.98 419.317 387.279C419.317 386.578 418.884 386.01 418.35 386.01C417.816 386.01 417.383 386.578 417.383 387.279C417.383 387.98 417.816 388.548 418.35 388.548Z" fill="white"/>
<path d="M397.076 388.548C397.61 388.548 398.043 387.98 398.043 387.279C398.043 386.578 397.61 386.01 397.076 386.01C396.542 386.01 396.109 386.578 396.109 387.279C396.109 387.98 396.542 388.548 397.076 388.548Z" fill="white"/>
<path d="M446.043 357.216L456.724 337.592H470.728V356.325C470.728 356.325 459.292 356.204 456.724 361.431H446.043V357.216Z" fill="#263238"/>
<path d="M489.749 337.592H472.723V356.325H489.749V337.592Z" fill="#263238"/>
<path d="M430.361 362.644H429.727L434.606 358.701H435.195L433.231 362.644H432.612L433.08 361.738H431.464L430.361 362.644ZM433.383 361.164L434.274 359.441L432.174 361.164H433.383Z" fill="#407BFF"/>
<path d="M425.781 362.644L429.211 358.701H429.709L428.697 361.315L432.247 358.701H432.746L429.332 362.644H428.757L430.993 360.061L428.078 362.191H427.806L428.621 360.031L426.355 362.644H425.781Z" fill="#407BFF"/>
<path d="M424.38 360.605C424.275 360.439 424.365 360.137 424.713 359.744C425.257 359.125 426.012 358.717 426.797 358.717H428.308L424.894 362.66H423.293C422.462 362.66 422.371 362.267 422.96 361.587C423.398 361.058 423.927 360.741 424.38 360.605ZM423.821 362.071H424.788L425.77 360.938H424.803C424.35 360.938 423.957 361.119 423.61 361.512C423.277 361.904 423.368 362.071 423.821 362.071ZM426.374 359.276C425.951 359.276 425.574 359.457 425.257 359.82C424.939 360.182 425.03 360.364 425.438 360.364H426.284L427.22 359.276H426.374Z" fill="#407BFF"/>
<path d="M419.94 362.705C419.063 362.705 419.063 362.086 420.061 360.938L421.994 358.717H422.583L420.68 360.907C419.97 361.723 419.97 362.071 420.499 362.071C421.027 362.071 421.617 361.723 422.327 360.907L424.23 358.717H424.834L422.901 360.938C421.904 362.071 420.831 362.705 419.94 362.705Z" fill="#407BFF"/>
<path d="M417.734 362.644H415.438L415.981 362.025H417.673L420.559 358.701H421.163L417.734 362.644Z" fill="#407BFF"/>
<path d="M412.506 362.644H411.871L416.751 358.701H417.34L415.376 362.644H414.757L415.225 361.738H413.608L412.506 362.644ZM415.542 361.164L416.434 359.441L414.334 361.164H415.542Z" fill="#407BFF"/>
<path d="M412.613 358.701L410.301 361.36L414.395 358.701H414.894L411.48 362.644H410.891L413.202 359.985L409.108 362.644H408.609L412.024 358.701H412.613Z" fill="#407BFF"/>
<path d="M406.172 362.705C405.643 362.705 405.387 362.478 405.462 362.04L406.248 361.587C406.202 361.904 406.369 362.055 406.701 362.055C407.366 362.055 408.348 361.481 409.058 360.665C409.768 359.849 409.768 359.275 409.103 359.275C408.771 359.275 408.348 359.426 407.834 359.743V359.305C408.499 358.882 409.164 358.641 409.692 358.641C410.689 358.641 410.689 359.487 409.662 360.665C408.635 361.859 407.154 362.705 406.172 362.705Z" fill="#407BFF"/>
<path d="M404.286 362.024L405.223 360.937H403.667L404.195 360.332H405.751L406.643 359.305H404.875L405.404 358.686H407.761L404.346 362.629H401.914L402.443 362.009H404.286V362.024Z" fill="#407BFF"/>
<path d="M515.49 339.207H511.426V356.324H515.49V339.207Z" fill="#407BFF"/>
<path d="M522.008 349.798V345.734H504.891V349.798H522.008Z" fill="#407BFF"/>
<path d="M537.521 364.044H483.995C477.061 364.044 470.338 366.038 464.537 369.83L461.108 372.051H434.035V370.54H460.67L463.706 368.561C469.764 364.618 476.774 362.533 483.995 362.533H537.325L537.521 364.044Z" fill="#407BFF"/>
<path d="M421.4 378.094C421.808 375.314 424.043 369.77 426.128 367.881C428.198 366.023 435.706 362.835 436.311 363.319C439.514 365.932 431.325 376.583 428.848 378.079C426.385 379.589 421.143 379.846 421.4 378.094Z" fill="white"/>
</g>
<defs>
<clipPath id="clip0_9765_118430">
<rect width="587" height="408" fill="white"/>
</clipPath>
</defs>
</svg>
